<svg width="362" height="71" viewBox="0 0 362 71" fill="none" xmlns="http://www.w3.org/2000/svg">
<path d="M105.438 34.1101L100.045 32.9743C99.1113 32.8489 98.2304 32.4684 97.4987 31.8748C97.2708 31.6616 97.0899 31.4032 96.9673 31.1161C96.8447 30.829 96.7832 30.5195 96.7867 30.2073C96.7774 29.6355 96.9794 29.0804 97.3539 28.6486C97.7995 28.1572 98.3713 27.7978 99.007 27.6095C99.8441 27.3361 100.721 27.2054 101.601 27.2228C102.866 27.2315 104.109 27.551 105.221 28.1532C106.392 28.7694 107.322 29.7606 107.864 30.9685L111.363 28.0324C110.488 26.4613 109.153 25.1963 107.538 24.4075C105.647 23.5452 103.582 23.1317 101.505 23.1992C99.6932 23.1514 97.8932 23.5019 96.2317 24.2263C94.8995 24.8024 93.7515 25.7346 92.9133 26.9208C92.1657 27.9804 91.769 29.2483 91.7791 30.5456C91.7503 31.3295 91.8773 32.1113 92.1528 32.8456C92.4283 33.5799 92.8468 34.252 93.3839 34.823C94.8966 36.1487 96.771 36.9904 98.7656 37.2396L103.773 38.2787C104.61 38.4028 105.391 38.7729 106.018 39.342C106.438 39.8245 106.65 40.4544 106.607 41.0932C106.564 41.7321 106.27 42.3278 105.788 42.7494C105.646 42.8691 105.493 42.9743 105.33 43.0636C104.267 43.6168 103.075 43.8755 101.879 43.8127C100.23 43.8464 98.6024 43.4286 97.1729 42.6044C95.8921 41.8937 94.8348 40.8392 94.12 39.5595L90.6328 42.5924C91.8098 44.2943 93.4345 45.6368 95.3267 46.471C97.3602 47.3973 99.5726 47.8635 101.806 47.8364C103.617 47.8812 105.419 47.5607 107.104 46.8939C108.472 46.3517 109.654 45.4242 110.506 44.2236C111.305 43.0439 111.726 41.649 111.713 40.2241C111.745 38.8054 111.246 37.426 110.313 36.3575C108.976 35.0976 107.264 34.3087 105.438 34.1101ZM133.698 24.625C131.907 23.6315 129.881 23.1391 127.834 23.1992C125.73 23.1628 123.652 23.6706 121.801 24.6733C120.039 25.649 118.601 27.1189 117.662 28.9024C116.638 30.9464 116.14 33.2141 116.214 35.4997C116.153 37.7882 116.663 40.0559 117.698 42.097C118.632 43.9085 120.086 45.3984 121.873 46.3743C123.796 47.3803 125.942 47.8832 128.112 47.8364C129.585 47.8502 131.051 47.6299 132.456 47.1839C133.712 46.7739 134.877 46.1212 135.883 45.2627C136.839 44.4415 137.619 43.4344 138.175 42.3024L134.157 40.4053C133.625 41.4369 132.825 42.3053 131.84 42.9186C130.671 43.561 129.348 43.8702 128.015 43.8127C126.745 43.8363 125.493 43.5103 124.395 42.8703C123.32 42.2148 122.476 41.2389 121.982 40.0791C121.55 39.1207 121.289 38.0945 121.21 37.0463H138.525C138.525 36.6717 138.634 36.2246 138.67 35.7292C138.706 35.2338 138.67 34.678 138.67 34.1101C138.719 32.1795 138.305 30.2653 137.463 28.5278C136.616 26.8867 135.307 25.5299 133.698 24.625ZM121.873 31.0169C122.339 29.8716 123.154 28.9031 124.202 28.2499C125.269 27.5982 126.5 27.2669 127.75 27.2953C128.561 27.25 129.372 27.3785 130.129 27.6723C130.887 27.9661 131.573 28.4184 132.142 28.999C133.128 30.175 133.678 31.6563 133.698 33.1918H121.27C121.382 32.445 121.584 31.7146 121.873 31.0169ZM160.052 41.7103C159.533 42.3872 158.852 42.9231 158.073 43.269C157.049 43.6866 155.945 43.8676 154.842 43.7986C153.739 43.7295 152.666 43.4122 151.702 42.8703C150.655 42.2076 149.844 41.2307 149.385 40.0791C148.805 38.6538 148.53 37.1226 148.577 35.5842C148.534 34.0327 148.801 32.4883 149.361 31.041C149.81 29.8844 150.613 28.8992 151.654 28.2257C152.738 27.55 153.997 27.2096 155.274 27.247C156.556 27.2027 157.811 27.6328 158.797 28.4553C159.769 29.3467 160.453 30.5077 160.764 31.7902L165.591 29.9052C165.135 28.6265 164.43 27.4516 163.515 26.4495C162.579 25.4244 161.424 24.6233 160.136 24.1054C158.597 23.5161 156.957 23.2329 155.31 23.2717C153.207 23.2486 151.132 23.7556 149.276 24.7458C147.503 25.7137 146.054 27.185 145.113 28.9749C144.097 30.996 143.596 33.2375 143.653 35.4997C143.592 37.7882 144.102 40.0559 145.138 42.097C146.056 43.9034 147.493 45.3932 149.264 46.3743C151.171 47.3788 153.301 47.8818 155.455 47.8364C157.106 47.8759 158.748 47.5799 160.281 46.9664C161.609 46.4384 162.798 45.6116 163.756 44.5498C164.697 43.4743 165.396 42.2094 165.808 40.8403L161.222 39.2695C161.029 40.1638 160.628 40.9998 160.052 41.7103ZM183.799 23.2234C182.179 23.1748 180.578 23.5943 179.19 24.4317C177.912 25.2903 176.931 26.5223 176.378 27.9599L175.907 23.7067H171.612V47.3651H176.668V34.823C176.611 33.4395 176.928 32.0663 177.585 30.8477C178.139 29.8691 178.948 29.0591 179.926 28.5036C180.804 27.9988 181.797 27.7284 182.81 27.7182C183.387 27.7099 183.964 27.7503 184.535 27.8391C184.944 27.9139 185.348 28.0189 185.742 28.1532L186.454 23.7067C186.072 23.5261 185.665 23.4039 185.247 23.3442C184.768 23.268 184.284 23.2276 183.799 23.2234ZM206.533 24.625C204.745 23.6331 202.723 23.1407 200.68 23.1992C198.576 23.1628 196.498 23.6706 194.647 24.6733C192.889 25.6497 191.454 27.1198 190.52 28.9024C189.483 30.9424 188.977 33.2116 189.048 35.4997C188.984 37.7899 189.498 40.0593 190.544 42.097C191.478 43.9085 192.932 45.3984 194.719 46.3743C196.643 47.3803 198.788 47.8832 200.958 47.8364C202.435 47.8492 203.905 47.629 205.314 47.1839C206.573 46.7714 207.741 46.119 208.753 45.2627C209.704 44.4315 210.483 43.4216 211.045 42.2903L207.027 40.3933C206.495 41.4248 205.695 42.2932 204.71 42.9065C203.539 43.554 202.21 43.8635 200.873 43.8006C199.583 43.8361 198.308 43.5097 197.193 42.8582C196.123 42.196 195.281 41.2221 194.78 40.067C194.361 39.1043 194.1 38.0802 194.007 37.0342H211.323C211.323 36.6596 211.432 36.2126 211.468 35.7171C211.504 35.2217 211.468 34.6659 211.468 34.098C211.5 32.1609 211.061 30.245 210.189 28.5157C209.374 26.8904 208.103 25.5383 206.533 24.625ZM194.719 30.9927C195.196 29.8644 196.004 28.9078 197.036 28.2499C198.104 27.6013 199.335 27.2703 200.584 27.2953C201.395 27.25 202.206 27.3785 202.964 27.6723C203.721 27.9661 204.407 28.4184 204.976 28.999C205.967 30.1719 206.518 31.6552 206.533 33.1918H194.104C194.216 32.4359 194.423 31.6971 194.719 30.9927ZM229.845 43.2207C229.141 43.5075 228.385 43.6473 227.625 43.6315C226.725 43.6811 225.838 43.3924 225.139 42.8219C224.811 42.489 224.559 42.0885 224.4 41.6483C224.242 41.208 224.181 40.7386 224.222 40.2724V27.682H232.343V23.7067H224.222V16.7469L219.154 18.1244V23.6704H214.617V27.6457H219.154V41.082C219.12 42.4507 219.467 43.802 220.156 44.9848C220.774 45.9779 221.703 46.7384 222.798 47.1476C223.991 47.5922 225.255 47.8133 226.527 47.8001C227.723 47.8145 228.914 47.6307 230.05 47.2564C231.032 46.9409 231.942 46.436 232.729 45.7702L231.595 42.0728C231.079 42.5499 230.488 42.9378 229.845 43.2207ZM237.351 23.7067H242.407V47.3772H237.351V23.7067ZM239.909 13.4362C238.994 13.3709 238.088 13.6559 237.375 14.2337C237.074 14.5369 236.842 14.9004 236.692 15.3003C236.542 15.7002 236.479 16.1274 236.506 16.5536C236.482 16.9831 236.547 17.413 236.696 17.8163C236.846 18.2196 237.077 18.5877 237.375 18.8977C238.084 19.4841 238.991 19.7779 239.909 19.7193C240.813 19.7829 241.706 19.4878 242.394 18.8977C242.692 18.5877 242.923 18.2196 243.073 17.8163C243.222 17.413 243.287 16.9831 243.263 16.5536C243.29 16.1274 243.227 15.7002 243.077 15.3003C242.928 14.9004 242.695 14.5369 242.394 14.2337C241.694 13.6675 240.808 13.3832 239.909 13.4362ZM283.059 24.1658C281.731 23.537 280.28 23.211 278.811 23.2113C277.735 23.218 276.665 23.385 275.638 23.7067C274.576 24.0472 273.583 24.5751 272.706 25.2654C271.822 25.9585 271.112 26.8479 270.63 27.8632C269.967 26.377 268.829 25.1531 267.396 24.3833C265.955 23.5894 264.336 23.1737 262.691 23.175C261.168 23.1765 259.668 23.5498 258.322 24.2625C256.911 25.0291 255.763 26.2039 255.028 27.6337L254.799 23.6584H250.31V47.3651H255.366V34.7747C255.294 33.2981 255.619 31.8292 256.307 30.5215C256.866 29.5026 257.703 28.6643 258.721 28.1049C259.589 27.6212 260.563 27.3597 261.556 27.3437C262.845 27.2951 264.102 27.755 265.056 28.6245C265.562 29.1854 265.945 29.8458 266.182 30.5636C266.419 31.2813 266.504 32.0407 266.431 32.7931V47.2926H271.499V34.4968C271.45 33.1456 271.741 31.8037 272.344 30.594C272.841 29.587 273.621 28.7472 274.588 28.1774C275.513 27.6348 276.569 27.3549 277.641 27.3678C278.93 27.3192 280.187 27.7791 281.14 28.6486C281.642 29.2117 282.023 29.8728 282.257 30.5902C282.492 31.3076 282.576 32.0658 282.504 32.8172V47.3168H287.572V32.0318C287.654 30.2948 287.236 28.5706 286.365 27.0658C285.573 25.7937 284.423 24.7848 283.059 24.1658ZM327.923 24.1658C326.59 23.5368 325.136 23.2108 323.663 23.2113C322.591 23.2192 321.525 23.3861 320.502 23.7067C319.437 24.0361 318.443 24.5605 317.569 25.2533C316.681 25.9451 315.967 26.8345 315.482 27.8511C314.818 26.3649 313.681 25.141 312.248 24.3713C310.806 23.5773 309.187 23.1616 307.542 23.163C306.019 23.1644 304.52 23.5377 303.174 24.2504C301.768 25.0208 300.625 26.1949 299.892 27.6216L299.651 23.6463H295.162V47.3651H300.218V34.7747C300.15 33.2971 300.479 31.8282 301.171 30.5215C301.67 29.5733 302.416 28.7777 303.329 28.2184C304.242 27.6591 305.289 27.3569 306.36 27.3437C306.998 27.3143 307.637 27.4125 308.238 27.6323C308.838 27.8522 309.389 28.1894 309.859 28.6245C310.365 29.1854 310.749 29.8458 310.986 30.5636C311.222 31.2813 311.307 32.0407 311.234 32.7931V47.2926H316.29V34.4968C316.245 33.1445 316.54 31.8026 317.147 30.594C317.634 29.6116 318.389 28.7874 319.324 28.2165C320.26 27.6456 321.337 27.3514 322.432 27.3678C323.721 27.3192 324.978 27.7791 325.932 28.6486C326.438 29.2095 326.821 29.87 327.058 30.5877C327.295 31.3055 327.38 32.0648 327.307 32.8172V47.3168H332.363V32.0318C332.446 30.2948 332.027 28.5706 331.156 27.0658C330.379 25.8085 329.256 24.8018 327.923 24.1658ZM360.514 28.9265C359.572 27.146 358.134 25.6771 356.376 24.6975C354.489 23.7265 352.398 23.22 350.276 23.22C348.154 23.22 346.063 23.7265 344.176 24.6975C342.413 25.6794 340.968 27.1472 340.013 28.9265C338.97 30.9568 338.451 33.2168 338.505 35.4997C338.445 37.7909 338.964 40.0602 340.013 42.097C340.956 43.8979 342.403 45.3844 344.176 46.3743C346.067 47.3339 348.156 47.834 350.276 47.834C352.395 47.834 354.485 47.3339 356.376 46.3743C358.138 45.3937 359.576 43.9199 360.514 42.1332C361.556 40.0813 362.066 37.8004 361.999 35.4997C362.056 33.2193 361.546 30.9605 360.514 28.9265ZM356.134 40.0549C355.69 41.2301 354.883 42.2327 353.83 42.9172C352.778 43.6016 351.535 43.9323 350.282 43.8611C349.006 43.9087 347.745 43.572 346.662 42.8944C345.631 42.1988 344.833 41.2097 344.369 40.0549C343.79 38.6211 343.514 37.0821 343.561 35.5359C343.513 33.9818 343.788 32.4346 344.369 30.9927C344.834 29.8449 345.633 28.8638 346.662 28.1774C347.746 27.5017 349.005 27.1613 350.282 27.1987C351.56 27.1478 352.823 27.4893 353.902 28.1774C354.921 28.8685 355.711 29.8489 356.171 30.9927C356.752 32.4346 357.027 33.9818 356.979 35.5359C357.014 37.0846 356.726 38.6236 356.134 40.0549Z" fill="black"/>
<path d="M24.3022 22.0514V20.0819L26.0639 18.5232" fill="white"/>
<path d="M35.4517 70.9992C55.0311 70.9992 70.9034 55.1054 70.9034 35.4995C70.9034 15.8935 55.0311 -0.000244141 35.4517 -0.000244141C15.8723 -0.000244141 0 15.8935 0 35.4995C0 55.1054 15.8723 70.9992 35.4517 70.9992Z" fill="black"/>
<path d="M26.8482 36.5026H41.5091L45.0326 32.9744H27.8618V21.6405L35.5 15.0433L43.0416 21.6405V27.6216H46.6012V20.0818L45.3946 19.0185L45.2498 18.8856L35.5 10.1255L27.6084 17.1336L24.8331 19.5502C24.6653 19.7161 24.532 19.9136 24.4409 20.1314C24.3498 20.3491 24.3026 20.5828 24.3022 20.8189V36.5267L26.8482 36.5026Z" fill="white"/>
<path d="M46.5771 34.521L43.0537 38.0492V47.8002L35.4035 54.3733L27.8739 47.8122V41.5412H24.2539V49.383L25.5209 50.4826L34.0882 58.1432L35.4759 59.3515L43.295 52.1017L45.3463 50.2893L46.553 49.2864V34.7143C46.5669 34.6508 46.575 34.586 46.5771 34.521Z" fill="#878787"/>
<path d="M97.2694 57.1161C96.6536 56.7611 95.9526 56.5814 95.2422 56.5965C94.5282 56.5829 93.8236 56.7624 93.2029 57.1161C92.6314 57.4698 92.1746 57.9819 91.8877 58.5902C91.5771 59.305 91.4168 60.0762 91.4168 60.8558C91.4168 61.6353 91.5771 62.4065 91.8877 63.1213C92.1746 63.7297 92.6314 64.2417 93.2029 64.5954C93.8213 64.9549 94.5275 65.1348 95.2422 65.115C95.9533 65.1365 96.656 64.9564 97.2694 64.5954C97.8472 64.2457 98.3089 63.7329 98.5967 63.1213C98.9073 62.4065 99.0676 61.6353 99.0676 60.8558C99.0676 60.0762 98.9073 59.305 98.5967 58.5902C98.3089 57.9787 97.8472 57.4658 97.2694 57.1161ZM97.74 62.638C97.5388 63.1043 97.2079 63.5028 96.7867 63.7859C96.3376 64.0506 95.8236 64.1845 95.3025 64.1725C94.7854 64.1842 94.2753 64.0502 93.8304 63.7859C93.3994 63.5106 93.0626 63.1102 92.8651 62.638C92.3954 61.4755 92.3954 60.1757 92.8651 59.0131C93.0592 58.5421 93.3971 58.1445 93.8304 57.8773C94.2716 57.6031 94.7834 57.4645 95.3025 57.4786C95.8254 57.4649 96.3409 57.6034 96.7867 57.8773C97.2099 58.1529 97.5417 58.5483 97.74 59.0131C98.2096 60.1757 98.2096 61.4755 97.74 62.638ZM107.152 64.9942H108.153V61.2726H111.87V60.3302H108.153V57.6598H112.92V56.7294H107.152V64.9942ZM120.654 64.9942H121.656V61.2726H125.385V60.3302H121.656V57.6598H126.434V56.7294H120.654V64.9942ZM133.517 61.2001H137.644V62.2393H133.517V61.2001ZM150.64 61.756L150 63.8101H149.976L149.361 61.7439L147.539 56.7294H146.006V64.9942H146.96V59.7864L146.839 57.6115H146.851L149.566 64.9942H150.423L153.138 57.6115H153.15L153.029 59.7864V64.9942H153.982V56.7294H152.438L150.64 61.756ZM164.758 56.7899L161.548 65.0546H162.598L163.467 62.7588H167.22L168.088 65.0546H169.15L165.953 56.7899H164.758ZM163.829 61.8164L164.963 58.856L165.325 57.7323L165.711 58.9406L166.833 61.8647L163.829 61.8164ZM181.856 60.8739C182.109 60.6652 182.309 60.4002 182.441 60.1002C182.573 59.8002 182.633 59.4735 182.616 59.146C182.631 58.8118 182.571 58.4784 182.439 58.1709C182.308 57.8634 182.108 57.5895 181.856 57.3698C181.263 56.9291 180.529 56.7226 179.793 56.7899H176.668V65.0546H177.669V61.623H179.648L181.893 65.0546H183.099L180.686 61.4297C181.115 61.3417 181.517 61.151 181.856 60.8739ZM177.705 57.6598H179.793C180.265 57.6276 180.734 57.7599 181.12 58.0344C181.392 58.3381 181.543 58.7319 181.543 59.14C181.543 59.5481 181.392 59.9418 181.12 60.2456C180.737 60.5258 180.266 60.6587 179.793 60.6202H177.681L177.705 57.6598ZM197.362 56.7294H196.059L191.896 60.9826V56.7294H190.906V64.9942H191.896V62.3359L193.368 60.8256L196.203 64.9942H197.398L194.08 60.1006L197.362 56.7294ZM206.002 61.2726H209.718V60.3302H206.002V57.6598H210.792V56.7294H205V64.9942H210.973V64.0517H206.002V61.2726ZM217.911 57.6598H220.795V64.9942H221.797V57.6598H224.669V56.7294H217.911V57.6598ZM242.696 60.6081L240.91 60.2093C240.501 60.1482 240.119 59.9675 239.812 59.6898C239.632 59.4724 239.534 59.1988 239.535 58.9165C239.529 58.6673 239.601 58.4225 239.74 58.2156C239.896 57.993 240.114 57.8208 240.367 57.7202C240.718 57.5884 241.091 57.5268 241.465 57.539C241.952 57.525 242.434 57.6374 242.865 57.8652C243.305 58.1495 243.666 58.5401 243.915 59.001L244.747 58.3486C244.431 57.7896 243.965 57.3298 243.403 57.0205C242.84 56.7111 242.203 56.5643 241.562 56.5965C240.997 56.5865 240.436 56.702 239.921 56.9349C239.493 57.1319 239.126 57.4408 238.859 57.829C238.615 58.1848 238.485 58.606 238.485 59.0373C238.484 59.351 238.554 59.6608 238.69 59.9435C238.844 60.2464 239.078 60.5013 239.366 60.6806C239.736 60.909 240.145 61.0686 240.572 61.1518L242.539 61.623C242.912 61.6742 243.259 61.8436 243.529 62.1064C243.684 62.3151 243.76 62.5717 243.746 62.8313C243.748 63.1024 243.659 63.3663 243.493 63.5805C243.302 63.802 243.05 63.9619 242.769 64.0396C242.414 64.1529 242.043 64.206 241.67 64.1967C241.26 64.2034 240.852 64.138 240.464 64.0034C240.127 63.8768 239.819 63.6837 239.559 63.4355C239.314 63.1892 239.107 62.9083 238.943 62.6018L238.075 63.3147C238.287 63.6635 238.556 63.974 238.871 64.233C239.231 64.5236 239.64 64.7485 240.078 64.8975C240.588 65.0644 241.122 65.1461 241.658 65.1392C242.232 65.154 242.803 65.0512 243.336 64.8371C243.779 64.6671 244.164 64.3736 244.446 63.9913C244.704 63.6413 244.843 63.218 244.844 62.783C244.86 62.3 244.692 61.8289 244.373 61.466C243.922 61.006 243.333 60.705 242.696 60.6081ZM257.176 57.0315C256.72 56.8179 256.22 56.7144 255.716 56.7294H252.808V64.9942H253.809V61.756H255.716C256.22 61.771 256.72 61.6675 257.176 61.4539C257.574 61.2614 257.908 60.9597 258.141 60.5839C258.371 60.1742 258.491 59.7124 258.491 59.2427C258.491 58.773 258.371 58.3112 258.141 57.9015C257.908 57.5257 257.574 57.224 257.176 57.0315ZM257.019 60.4147C256.608 60.7151 256.102 60.8567 255.595 60.8135H253.834V57.6598H255.595C256.102 57.6166 256.608 57.7582 257.019 58.0586C257.324 58.3871 257.493 58.8187 257.493 59.2669C257.493 59.715 257.324 60.1467 257.019 60.4752V60.4147ZM267.324 61.2726H271.053V60.3302H267.324V57.6598H272.115V56.7294H266.323V64.9942H272.308V64.0517H267.324V61.2726ZM284.772 63.7617C284.346 64.0414 283.846 64.1847 283.336 64.1725C282.819 64.1842 282.309 64.0502 281.864 63.7859C281.433 63.5106 281.097 63.1102 280.899 62.638C280.659 62.0776 280.543 61.4714 280.561 60.8618C280.546 60.2434 280.665 59.6291 280.911 59.0615C281.127 58.5961 281.475 58.2051 281.913 57.9377C282.355 57.6667 282.866 57.5283 283.385 57.539C283.858 57.516 284.327 57.6428 284.724 57.9015C285.091 58.1775 285.368 58.5558 285.521 58.989L286.51 58.5298C286.352 58.1282 286.109 57.7655 285.798 57.4665C285.51 57.168 285.16 56.937 284.772 56.7899C284.313 56.6387 283.832 56.5652 283.349 56.5724C282.642 56.5601 281.946 56.7396 281.333 57.0919C280.759 57.4418 280.301 57.9549 280.018 58.5661C279.708 59.2809 279.547 60.0521 279.547 60.8316C279.547 61.6112 279.708 62.3823 280.018 63.0972C280.301 63.7083 280.759 64.2214 281.333 64.5713C281.952 64.9308 282.658 65.1107 283.373 65.0908C283.864 65.0972 284.352 65.0069 284.809 64.825C285.251 64.6508 285.65 64.3829 285.979 64.0396C286.308 63.6923 286.563 63.2811 286.727 62.8313L285.738 62.4568C285.576 62.9902 285.235 63.4513 284.772 63.7617ZM294.51 56.7294H295.512V64.9942H294.51V56.7294ZM306.299 56.7899L303.077 65.0546H304.079L304.96 62.7588H308.7L309.569 65.0546H310.631L307.482 56.7899H306.299ZM305.358 61.8164L306.492 58.856L306.854 57.7323L307.24 58.9406L308.363 61.8647L305.358 61.8164ZM319.247 56.7294H318.245V64.9942H323.977V64.0517H319.247V56.7294ZM331.603 56.7294H332.604V64.9942H331.603V56.7294ZM344.985 60.6081L343.199 60.2093C342.789 60.1511 342.406 59.97 342.101 59.6898C341.921 59.4724 341.823 59.1988 341.823 58.9165C341.818 58.6673 341.89 58.4225 342.028 58.2156C342.185 57.993 342.403 57.8208 342.656 57.7202C343.007 57.5884 343.38 57.5268 343.754 57.539C344.241 57.525 344.723 57.6374 345.154 57.8652C345.593 58.1495 345.954 58.5401 346.203 59.001L347.036 58.3486C346.72 57.7999 346.261 57.3472 345.709 57.0387C345.157 56.7302 344.531 56.5774 343.899 56.5965C343.333 56.5853 342.773 56.7009 342.258 56.9349C341.83 57.1319 341.463 57.4408 341.196 57.829C340.952 58.1848 340.822 58.606 340.822 59.0373C340.821 59.351 340.891 59.6608 341.027 59.9435C341.181 60.2464 341.414 60.5013 341.703 60.6806C342.073 60.909 342.482 61.0686 342.909 61.1518L344.852 61.5989C345.225 61.65 345.572 61.8194 345.841 62.0822C346.007 62.2823 346.097 62.5349 346.095 62.7951C346.106 63.0656 346.021 63.3313 345.854 63.5442C345.663 63.7658 345.411 63.9256 345.13 64.0034C344.771 64.1173 344.396 64.1704 344.019 64.1605C343.609 64.1676 343.2 64.1022 342.813 63.9671C342.476 63.8406 342.168 63.6474 341.908 63.3992C341.663 63.153 341.456 62.8721 341.292 62.5655L340.424 63.2784C340.635 63.6272 340.905 63.9377 341.22 64.1967C341.578 64.49 341.987 64.7152 342.427 64.8613C342.937 65.0282 343.471 65.1098 344.007 65.1029C344.581 65.1178 345.152 65.015 345.685 64.8009C346.128 64.6308 346.513 64.3373 346.795 63.9551C347.053 63.605 347.192 63.1817 347.193 62.7468C347.209 62.2637 347.041 61.7927 346.722 61.4297C346.25 60.9713 345.639 60.6824 344.985 60.6081ZM353.842 56.7294V57.6598H356.726V64.9942H357.715V57.6598H360.599V56.7294H353.842Z" fill="black"/>
</svg>
