<svg width="264" height="52" viewBox="0 0 264 52" fill="none" xmlns="http://www.w3.org/2000/svg">
<path d="M76.8943 24.9823L72.9608 24.1505C72.2801 24.0586 71.6376 23.7799 71.104 23.3451C70.9378 23.189 70.8058 22.9998 70.7165 22.7895C70.6271 22.5793 70.5822 22.3526 70.5848 22.1239C70.578 21.7051 70.7253 21.2986 70.9984 20.9823C71.3234 20.6224 71.7404 20.3592 72.204 20.2213C72.8144 20.0211 73.454 19.9254 74.096 19.9381C75.0182 19.9444 75.9247 20.1784 76.7359 20.6195C77.5896 21.0708 78.2681 21.7967 78.6631 22.6814L81.2151 20.531C80.5767 19.3803 79.6032 18.4539 78.4255 17.8762C77.0462 17.2446 75.5404 16.9417 74.0256 16.9912C72.7044 16.9562 71.3917 17.2129 70.18 17.7434C69.2085 18.1654 68.3712 18.8481 67.76 19.7169C67.2148 20.4929 66.9254 21.4215 66.9328 22.3717C66.9118 22.9458 67.0044 23.5184 67.2054 24.0562C67.4063 24.594 67.7115 25.0863 68.1032 25.5044C69.2063 26.4753 70.5733 27.0918 72.028 27.2743L75.68 28.0354C76.2902 28.1263 76.8599 28.3973 77.3167 28.8141C77.6233 29.1675 77.7779 29.6288 77.7466 30.0967C77.7152 30.5646 77.5005 31.0009 77.1495 31.3097C77.0459 31.3973 76.9339 31.4744 76.8151 31.5398C76.0398 31.945 75.1709 32.1344 74.2984 32.0884C73.0956 32.1131 71.909 31.8071 70.8664 31.2035C69.9323 30.683 69.1613 29.9107 68.64 28.9734L66.0968 31.1946C66.9552 32.4412 68.14 33.4244 69.52 34.0353C71.003 34.7138 72.6164 35.0552 74.2456 35.0353C75.5663 35.0682 76.8801 34.8334 78.1087 34.3451C79.1065 33.948 79.9684 33.2687 80.5903 32.3893C81.1725 31.5254 81.4794 30.5037 81.4703 29.4601C81.4938 28.4211 81.1297 27.4108 80.4495 26.6283C79.4739 25.7056 78.2258 25.1277 76.8943 24.9823ZM97.5039 18.0355C96.1972 17.3079 94.72 16.9472 93.2271 16.9912C91.6925 16.9646 90.177 17.3364 88.8271 18.0709C87.5423 18.7854 86.4932 19.862 85.8087 21.1682C85.062 22.6652 84.699 24.3261 84.7527 26C84.7079 27.6761 85.08 29.3369 85.8351 30.8318C86.5159 32.1586 87.5764 33.2498 88.8799 33.9645C90.2825 34.7013 91.8474 35.0696 93.4295 35.0353C94.5039 35.0454 95.5732 34.8841 96.5975 34.5575C97.514 34.2572 98.363 33.7792 99.0966 33.1504C99.7942 32.549 100.363 31.8114 100.769 30.9823L97.8382 29.5929C97.4503 30.3484 96.8665 30.9844 96.1487 31.4336C95.2957 31.9041 94.331 32.1305 93.3591 32.0884C92.4328 32.1057 91.5196 31.867 90.7191 31.3982C89.9347 30.9181 89.3193 30.2033 88.9591 29.354C88.6445 28.6521 88.4539 27.9004 88.3959 27.1327H101.024C101.024 26.8584 101.103 26.531 101.129 26.1681C101.156 25.8053 101.129 25.3982 101.129 24.9823C101.165 23.5683 100.863 22.1664 100.249 20.8938C99.6314 19.6919 98.6769 18.6982 97.5039 18.0355ZM88.8799 22.7168C89.2193 21.8781 89.8137 21.1687 90.5783 20.6903C91.3564 20.213 92.2543 19.9704 93.1655 19.9912C93.7569 19.958 94.3486 20.0521 94.901 20.2673C95.4534 20.4825 95.9538 20.8137 96.3687 21.239C97.0879 22.1003 97.4889 23.1851 97.5039 24.3097H88.4399C88.5216 23.7627 88.6693 23.2278 88.8799 22.7168ZM116.723 30.5486C116.344 31.0444 115.848 31.4368 115.28 31.6902C114.533 31.9961 113.728 32.1286 112.923 32.0781C112.119 32.0275 111.336 31.7951 110.633 31.3982C109.87 30.9128 109.279 30.1974 108.944 29.354C108.521 28.3101 108.32 27.1886 108.354 26.0619C108.323 24.9256 108.518 23.7945 108.926 22.7345C109.254 21.8874 109.839 21.1658 110.598 20.6726C111.389 20.1777 112.307 19.9284 113.238 19.9558C114.174 19.9233 115.088 20.2384 115.808 20.8407C116.516 21.4936 117.016 22.3439 117.242 23.2832L120.762 21.9027C120.43 20.9661 119.916 20.1057 119.249 19.3717C118.566 18.621 117.723 18.0342 116.785 17.6549C115.662 17.2233 114.466 17.0159 113.265 17.0443C111.731 17.0274 110.218 17.3987 108.865 18.1239C107.571 18.8328 106.515 19.9104 105.829 21.2213C105.087 22.7016 104.722 24.3432 104.764 26C104.719 27.6761 105.091 29.3369 105.846 30.8318C106.516 32.1548 107.564 33.2459 108.856 33.9645C110.246 34.7002 111.799 35.0686 113.37 35.0353C114.574 35.0642 115.772 34.8475 116.89 34.3982C117.859 34.0115 118.726 33.4059 119.425 32.6283C120.111 31.8406 120.621 30.9142 120.921 29.9115L117.577 28.761C117.435 29.416 117.143 30.0283 116.723 30.5486ZM134.041 17.0089C132.86 16.9734 131.693 17.2806 130.68 17.8939C129.748 18.5227 129.032 19.4251 128.629 20.4779L128.286 17.3629H125.153V34.6902H128.84V25.5044C128.799 24.4911 129.03 23.4854 129.509 22.5929C129.914 21.8762 130.504 21.283 131.216 20.8761C131.857 20.5064 132.581 20.3084 133.32 20.3009C133.741 20.2948 134.162 20.3244 134.578 20.3894C134.877 20.4442 135.171 20.5211 135.458 20.6195L135.977 17.3629C135.699 17.2307 135.402 17.1412 135.097 17.0974C134.748 17.0416 134.395 17.012 134.041 17.0089ZM150.62 18.0355C149.317 17.309 147.842 16.9483 146.352 16.9912C144.818 16.9646 143.302 17.3364 141.952 18.0709C140.67 18.786 139.624 19.8626 138.943 21.1682C138.186 22.6623 137.817 24.3242 137.869 26C137.822 27.6773 138.198 29.3394 138.96 30.8318C139.641 32.1586 140.702 33.2498 142.005 33.9645C143.408 34.7013 144.973 35.0696 146.555 35.0353C147.632 35.0447 148.704 34.8835 149.732 34.5575C150.65 34.2553 151.502 33.7775 152.24 33.1504C152.933 32.5416 153.501 31.802 153.912 30.9734L150.981 29.584C150.593 30.3395 150.009 30.9755 149.292 31.4247C148.437 31.899 147.468 32.1256 146.493 32.0796C145.552 32.1056 144.622 31.8665 143.809 31.3893C143.029 30.9044 142.415 30.1911 142.049 29.3451C141.744 28.64 141.554 27.89 141.486 27.1239H154.114C154.114 26.8495 154.193 26.5221 154.22 26.1593C154.246 25.7965 154.22 25.3894 154.22 24.9735C154.243 23.5547 153.923 22.1515 153.287 20.885C152.692 19.6946 151.766 18.7044 150.62 18.0355ZM142.005 22.6991C142.353 21.8727 142.942 21.1721 143.695 20.6903C144.474 20.2153 145.371 19.9729 146.282 19.9912C146.873 19.958 147.465 20.0521 148.018 20.2673C148.57 20.4825 149.07 20.8137 149.485 21.239C150.208 22.098 150.61 23.1843 150.62 24.3097H141.556C141.639 23.7561 141.789 23.215 142.005 22.6991ZM167.622 31.6548C167.108 31.8649 166.557 31.9673 166.003 31.9557C165.346 31.992 164.7 31.7806 164.19 31.3628C163.95 31.1189 163.767 30.8256 163.651 30.5032C163.536 30.1808 163.491 29.8369 163.521 29.4955V20.2744H169.443V17.3629H163.521V12.2656L159.825 13.2744V17.3363H156.516V20.2478H159.825V30.0885C159.8 31.0909 160.053 32.0806 160.556 32.9468C161.007 33.6742 161.684 34.2312 162.483 34.5309C163.352 34.8565 164.274 35.0185 165.202 35.0088C166.074 35.0193 166.943 34.8847 167.771 34.6105C168.487 34.3795 169.151 34.0097 169.725 33.5221L168.898 30.8141C168.522 31.1635 168.091 31.4476 167.622 31.6548ZM173.095 17.3629H176.783V34.699H173.095V17.3629ZM174.961 9.84083C174.294 9.793 173.633 10.0018 173.113 10.4249C172.894 10.647 172.724 10.9132 172.615 11.2061C172.506 11.499 172.46 11.8118 172.479 12.124C172.462 12.4386 172.509 12.7534 172.618 13.0488C172.727 13.3442 172.896 13.6138 173.113 13.8408C173.631 14.2703 174.291 14.4854 174.961 14.4426C175.62 14.4892 176.272 14.273 176.774 13.8408C176.991 13.6138 177.16 13.3442 177.269 13.0488C177.378 12.7534 177.425 12.4386 177.407 12.124C177.427 11.8118 177.381 11.499 177.272 11.2061C177.163 10.9132 176.993 10.647 176.774 10.4249C176.263 10.0103 175.617 9.80204 174.961 9.84083ZM206.43 17.6992C205.461 17.2386 204.403 16.9999 203.332 17.0001C202.547 17.005 201.767 17.1273 201.018 17.3629C200.243 17.6123 199.519 17.9989 198.879 18.5045C198.235 19.0121 197.717 19.6635 197.366 20.4071C196.882 19.3186 196.052 18.4222 195.007 17.8585C193.956 17.277 192.775 16.9726 191.575 16.9735C190.465 16.9746 189.371 17.248 188.39 17.77C187.36 18.3314 186.523 19.1919 185.987 20.239L185.82 17.3275H182.547V34.6902H186.234V25.469C186.181 24.3876 186.418 23.3118 186.92 22.354C187.328 21.6078 187.938 20.9938 188.68 20.5841C189.313 20.2299 190.024 20.0384 190.748 20.0266C191.688 19.991 192.605 20.3278 193.3 20.9646C193.669 21.3754 193.949 21.8591 194.122 22.3848C194.295 22.9105 194.356 23.4666 194.303 24.0177V34.6371H197.999V25.2655C197.964 24.2759 198.176 23.2931 198.615 22.4071C198.978 21.6696 199.547 21.0545 200.252 20.6372C200.927 20.2398 201.697 20.0348 202.479 20.0443C203.419 20.0087 204.335 20.3455 205.031 20.9823C205.397 21.3948 205.674 21.8789 205.845 22.4043C206.016 22.9297 206.077 23.4851 206.025 24.0354V34.6548H209.721V23.4602C209.781 22.188 209.476 20.9252 208.841 19.8231C208.263 18.8914 207.424 18.1525 206.43 17.6992ZM239.148 17.6992C238.176 17.2385 237.116 16.9997 236.042 17.0001C235.259 17.0059 234.482 17.1281 233.736 17.3629C232.96 17.6041 232.235 17.9882 231.598 18.4956C230.95 19.0023 230.429 19.6537 230.075 20.3983C229.591 19.3097 228.762 18.4134 227.717 17.8496C226.665 17.2681 225.485 16.9637 224.285 16.9647C223.174 16.9657 222.081 17.2391 221.099 17.7611C220.074 18.3253 219.24 19.1852 218.706 20.2301L218.53 17.3186H215.256V34.6902H218.943V25.469C218.894 24.3868 219.134 23.3111 219.638 22.354C220.003 21.6596 220.546 21.0768 221.212 20.6672C221.878 20.2576 222.642 20.0363 223.422 20.0266C223.888 20.0051 224.354 20.077 224.792 20.238C225.23 20.399 225.632 20.646 225.974 20.9646C226.344 21.3754 226.623 21.8591 226.796 22.3848C226.969 22.9105 227.031 23.4666 226.978 24.0177V34.6371H230.665V25.2655C230.632 24.2751 230.847 23.2923 231.29 22.4071C231.645 21.6877 232.195 21.084 232.877 20.6659C233.559 20.2478 234.345 20.0323 235.144 20.0443C236.084 20.0087 237 20.3455 237.696 20.9823C238.065 21.3931 238.345 21.8768 238.518 22.4025C238.69 22.9282 238.752 23.4843 238.699 24.0354V34.6548H242.386V23.4602C242.447 22.188 242.141 20.9252 241.506 19.8231C240.939 18.9022 240.12 18.165 239.148 17.6992ZM262.917 21.1859C262.229 19.8818 261.181 18.806 259.898 18.0886C258.522 17.3774 256.997 17.0064 255.45 17.0064C253.903 17.0064 252.378 17.3774 251.002 18.0886C249.716 18.8077 248.662 19.8827 247.966 21.1859C247.204 22.6728 246.826 24.328 246.866 26C246.822 27.6781 247.2 29.3401 247.966 30.8318C248.653 32.1508 249.708 33.2395 251.002 33.9645C252.38 34.6674 253.904 35.0336 255.45 35.0336C256.996 35.0336 258.52 34.6674 259.898 33.9645C261.183 33.2464 262.232 32.1669 262.917 30.8584C263.676 29.3555 264.048 27.685 263.999 26C264.041 24.3299 263.669 22.6756 262.917 21.1859ZM259.722 29.3363C259.398 30.1969 258.809 30.9312 258.042 31.4325C257.274 31.9338 256.368 32.176 255.454 32.1238C254.524 32.1587 253.604 31.9121 252.814 31.4159C252.063 30.9064 251.48 30.182 251.142 29.3363C250.719 28.2861 250.519 27.159 250.553 26.0265C250.518 24.8883 250.718 23.7552 251.142 22.6991C251.481 21.8585 252.064 21.1399 252.814 20.6372C253.605 20.1423 254.523 19.893 255.454 19.9204C256.386 19.8832 257.307 20.1333 258.094 20.6372C258.838 21.1434 259.414 21.8614 259.749 22.6991C260.172 23.7552 260.373 24.8883 260.338 26.0265C260.363 27.1608 260.154 28.2879 259.722 29.3363Z" fill="black"/>
<path d="M17.7231 16.1505V14.7081L19.0079 13.5665" fill="white"/>
<path d="M25.8543 51.9996C40.1332 51.9996 51.7085 40.3591 51.7085 25.9998C51.7085 11.6405 40.1332 0 25.8543 0C11.5754 0 0 11.6405 0 25.9998C0 40.3591 11.5754 51.9996 25.8543 51.9996Z" fill="black"/>
<path d="M19.5799 26.7345H30.2719L32.8414 24.1504H20.3191V15.8496L25.8895 11.0178L31.3894 15.8496V20.2301H33.9854V14.708L33.1054 13.9293L32.9998 13.8319L25.8895 7.41606L20.1343 12.5488L18.1103 14.3187C17.988 14.4402 17.8908 14.5848 17.8243 14.7443C17.7579 14.9038 17.7235 15.0749 17.7231 15.2479V26.7522L19.5799 26.7345Z" fill="white"/>
<path d="M33.9678 25.2832L31.3983 27.8672V35.0088L25.8191 39.8229L20.3279 35.0176V30.4247H17.6879V36.1681L18.6119 36.9734L24.8599 42.5839L25.8719 43.4689L31.5743 38.1592L33.0703 36.8318L33.9502 36.0973V25.4248C33.9604 25.3782 33.9663 25.3308 33.9678 25.2832Z" fill="#878787"/>
<path d="M70.9368 41.8317C70.4877 41.5717 69.9765 41.4402 69.4584 41.4512C68.9377 41.4412 68.4239 41.5727 67.9712 41.8317C67.5544 42.0908 67.2212 42.4658 67.012 42.9114C66.7855 43.4349 66.6686 43.9997 66.6686 44.5707C66.6686 45.1416 66.7855 45.7064 67.012 46.2299C67.2212 46.6755 67.5544 47.0505 67.9712 47.3096C68.4222 47.5729 68.9372 47.7046 69.4584 47.6901C69.977 47.7058 70.4895 47.5739 70.9368 47.3096C71.3582 47.0534 71.6949 46.6778 71.9048 46.2299C72.1313 45.7064 72.2482 45.1416 72.2482 44.5707C72.2482 43.9997 72.1313 43.4349 71.9048 42.9114C71.6949 42.4635 71.3582 42.0879 70.9368 41.8317ZM71.28 45.876C71.1333 46.2175 70.892 46.5093 70.5848 46.7167C70.2572 46.9105 69.8824 47.0086 69.5024 46.9998C69.1252 47.0084 68.7533 46.9102 68.4288 46.7167C68.1145 46.5151 67.8689 46.2217 67.7248 45.876C67.3823 45.0245 67.3823 44.0725 67.7248 43.2211C67.8664 42.8761 68.1128 42.585 68.4288 42.3893C68.7506 42.1884 69.1238 42.0869 69.5024 42.0972C69.8837 42.0872 70.2597 42.1886 70.5848 42.3893C70.8934 42.5911 71.1354 42.8806 71.28 43.2211C71.6225 44.0725 71.6225 45.0245 71.28 45.876ZM78.144 47.6016H78.8744V44.876H81.5847V44.1857H78.8744V42.23H82.3503V41.5486H78.144V47.6016ZM87.9911 47.6016H88.7215V44.876H91.4407V44.1857H88.7215V42.23H92.2063V41.5486H87.9911V47.6016ZM97.3719 44.8229H100.381V45.5839H97.3719V44.8229ZM109.859 45.2299L109.393 46.7344H109.375L108.926 45.2211L107.597 41.5486H106.48V47.6016H107.175V43.7875L107.087 42.1946H107.096L109.076 47.6016H109.701L111.681 42.1946H111.689L111.601 43.7875V47.6016H112.297V41.5486H111.17L109.859 45.2299ZM120.155 41.5928L117.814 47.6458H118.58L119.213 45.9644H121.95L122.584 47.6458H123.358L121.026 41.5928H120.155ZM119.477 45.2742L120.305 43.1061L120.569 42.2831L120.85 43.168L121.669 45.3096L119.477 45.2742ZM132.624 44.5839C132.809 44.4311 132.955 44.237 133.051 44.0173C133.147 43.7976 133.191 43.5582 133.179 43.3184C133.19 43.0736 133.146 42.8295 133.05 42.6043C132.954 42.379 132.808 42.1785 132.624 42.0176C132.192 41.6948 131.656 41.5436 131.12 41.5928H128.841V47.6458H129.571V45.1326H131.014L132.651 47.6458H133.531L131.771 44.991C132.084 44.9266 132.377 44.7869 132.624 44.5839ZM129.597 42.23H131.12C131.464 42.2063 131.806 42.3033 132.088 42.5043C132.286 42.7268 132.396 43.0151 132.396 43.314C132.396 43.6129 132.286 43.9013 132.088 44.1238C131.808 44.329 131.465 44.4263 131.12 44.3981H129.58L129.597 42.23ZM143.932 41.5486H142.982L139.946 44.6636V41.5486H139.224V47.6016H139.946V45.6547L141.02 44.5485L143.088 47.6016H143.959L141.539 44.0176L143.932 41.5486ZM150.233 44.876H152.944V44.1857H150.233V42.23H153.727V41.5486H149.503V47.6016H153.859V46.9113H150.233V44.876ZM158.919 42.23H161.022V47.6016H161.752V42.23H163.847V41.5486H158.919V42.23ZM176.994 44.3892L175.691 44.0972C175.393 44.0525 175.115 43.9201 174.891 43.7167C174.759 43.5575 174.688 43.3571 174.688 43.1503C174.684 42.9678 174.737 42.7885 174.838 42.637C174.952 42.474 175.111 42.3479 175.295 42.2742C175.551 42.1777 175.823 42.1326 176.096 42.1415C176.451 42.1312 176.803 42.2136 177.117 42.3804C177.438 42.5886 177.701 42.8747 177.883 43.2123L178.49 42.7344C178.259 42.325 177.919 41.9883 177.509 41.7617C177.099 41.5351 176.634 41.4276 176.167 41.4512C175.754 41.4438 175.346 41.5285 174.97 41.699C174.658 41.8433 174.39 42.0695 174.195 42.3539C174.018 42.6144 173.923 42.9229 173.923 43.2388C173.922 43.4686 173.973 43.6955 174.072 43.9025C174.184 44.1243 174.355 44.311 174.565 44.4423C174.835 44.6096 175.133 44.7266 175.445 44.7875L176.879 45.1326C177.151 45.17 177.404 45.2941 177.601 45.4866C177.714 45.6395 177.77 45.8274 177.759 46.0175C177.761 46.2161 177.696 46.4093 177.575 46.5662C177.436 46.7285 177.252 46.8455 177.047 46.9025C176.788 46.9854 176.517 47.0243 176.246 47.0175C175.947 47.0224 175.649 46.9745 175.366 46.8759C175.12 46.7833 174.896 46.6418 174.706 46.46C174.527 46.2796 174.376 46.0739 174.257 45.8494L173.623 46.3715C173.778 46.627 173.974 46.8544 174.204 47.0441C174.467 47.2569 174.765 47.4217 175.084 47.5308C175.456 47.6531 175.846 47.7128 176.237 47.7078C176.656 47.7186 177.072 47.6434 177.46 47.4866C177.783 47.362 178.064 47.1471 178.27 46.8671C178.458 46.6107 178.56 46.3007 178.56 45.9821C178.572 45.6284 178.449 45.2834 178.217 45.0175C177.888 44.6807 177.458 44.4602 176.994 44.3892ZM187.554 41.7698C187.221 41.6133 186.856 41.5376 186.489 41.5486H184.368V47.6016H185.099V45.2299H186.489C186.856 45.2409 187.221 45.1652 187.554 45.0087C187.844 44.8677 188.088 44.6468 188.258 44.3715C188.425 44.0715 188.513 43.7332 188.513 43.3892C188.513 43.0452 188.425 42.707 188.258 42.4069C188.088 42.1317 187.844 41.9107 187.554 41.7698ZM187.439 44.2476C187.14 44.4676 186.771 44.5714 186.401 44.5397H185.116V42.23H186.401C186.771 42.1983 187.14 42.302 187.439 42.522C187.661 42.7626 187.785 43.0787 187.785 43.4069C187.785 43.7352 187.661 44.0513 187.439 44.2919V44.2476ZM194.955 44.876H197.674V44.1857H194.955V42.23H198.448V41.5486H194.224V47.6016H198.589V46.9113H194.955V44.876ZM207.679 46.699C207.369 46.9038 207.003 47.0087 206.632 46.9998C206.255 47.0084 205.883 46.9102 205.559 46.7167C205.244 46.5151 204.999 46.2217 204.855 45.876C204.679 45.4655 204.595 45.0216 204.608 44.5751C204.597 44.1221 204.684 43.6722 204.863 43.2565C205.021 42.9157 205.275 42.6293 205.594 42.4335C205.917 42.235 206.289 42.1337 206.667 42.1415C207.013 42.1246 207.354 42.2175 207.644 42.4069C207.911 42.6091 208.114 42.8862 208.225 43.2034L208.947 42.8671C208.831 42.573 208.654 42.3073 208.427 42.0884C208.217 41.8698 207.962 41.7005 207.679 41.5928C207.344 41.4821 206.993 41.4283 206.641 41.4335C206.126 41.4245 205.618 41.556 205.171 41.814C204.752 42.0703 204.418 42.4461 204.212 42.8937C203.986 43.4172 203.869 43.982 203.869 44.553C203.869 45.1239 203.986 45.6887 204.212 46.2122C204.418 46.6598 204.752 47.0356 205.171 47.2919C205.622 47.5552 206.137 47.6869 206.659 47.6724C207.017 47.6771 207.373 47.6109 207.706 47.4777C208.028 47.3501 208.319 47.1539 208.559 46.9025C208.799 46.6481 208.985 46.3469 209.105 46.0175L208.383 45.7432C208.265 46.1339 208.017 46.4716 207.679 46.699ZM214.781 41.5486H215.511V47.6016H214.781V41.5486ZM223.378 41.5928L221.029 47.6458H221.759L222.402 45.9644H225.13L225.763 47.6458H226.538L224.241 41.5928H223.378ZM222.692 45.2742L223.519 43.1061L223.783 42.2831L224.065 43.168L224.883 45.3096L222.692 45.2742ZM232.821 41.5486H232.09V47.6016H236.27V46.9113H232.821V41.5486ZM241.832 41.5486H242.562V47.6016H241.832V41.5486ZM251.591 44.3892L250.289 44.0972C249.99 44.0546 249.711 43.9219 249.488 43.7167C249.357 43.5575 249.285 43.3571 249.286 43.1503C249.282 42.9678 249.334 42.7885 249.435 42.637C249.549 42.474 249.708 42.3479 249.893 42.2742C250.148 42.1777 250.421 42.1326 250.694 42.1415C251.049 42.1312 251.4 42.2136 251.714 42.3804C252.035 42.5886 252.298 42.8747 252.48 43.2123L253.087 42.7344C252.857 42.3325 252.522 42.001 252.119 41.775C251.716 41.5491 251.26 41.4372 250.799 41.4512C250.387 41.443 249.978 41.5276 249.602 41.699C249.29 41.8433 249.023 42.0695 248.828 42.3539C248.65 42.6144 248.555 42.9229 248.555 43.2388C248.555 43.4686 248.606 43.6955 248.705 43.9025C248.817 44.1243 248.987 44.311 249.198 44.4423C249.468 44.6096 249.766 44.7266 250.077 44.7875L251.494 45.1149C251.766 45.1523 252.019 45.2764 252.216 45.4689C252.337 45.6154 252.402 45.8004 252.401 45.991C252.409 46.1891 252.347 46.3837 252.225 46.5397C252.086 46.7019 251.902 46.819 251.697 46.8759C251.435 46.9594 251.161 46.9982 250.887 46.991C250.588 46.9962 250.29 46.9483 250.007 46.8494C249.762 46.7567 249.537 46.6153 249.347 46.4335C249.169 46.2531 249.017 46.0474 248.898 45.8229L248.265 46.345C248.419 46.6005 248.616 46.8278 248.846 47.0175C249.107 47.2323 249.405 47.3973 249.726 47.5043C250.098 47.6265 250.487 47.6863 250.878 47.6812C251.297 47.6921 251.713 47.6168 252.102 47.46C252.425 47.3355 252.706 47.1205 252.911 46.8405C253.099 46.5842 253.201 46.2742 253.202 45.9556C253.213 45.6018 253.091 45.2568 252.858 44.991C252.514 44.6552 252.068 44.4436 251.591 44.3892ZM258.05 41.5486V42.23H260.153V47.6016H260.875V42.23H262.978V41.5486H258.05Z" fill="black"/>
</svg>
