<svg width="21" height="20" viewBox="0 0 21 20" fill="none" xmlns="http://www.w3.org/2000/svg">
<g clip-path="url(#clip0_944_253)">
<path d="M9.8056 0.605225C9.88373 0.592203 9.9586 0.585693 10.0302 0.585693C10.1018 0.585693 10.1441 0.585693 10.1572 0.585693C10.2223 0.585693 10.3883 0.592203 10.6552 0.605225C10.9221 0.618246 11.1142 0.631266 11.2314 0.644287C11.635 0.696371 12.0289 0.781006 12.413 0.898193C12.7971 1.01538 13.178 1.16512 13.5556 1.34741C14.3238 1.712 15.0204 2.20679 15.6454 2.83179C16.2704 3.45679 16.7717 4.15991 17.1494 4.94116C17.3447 5.34481 17.4977 5.75496 17.6083 6.17163C17.719 6.5883 17.8004 7.03101 17.8525 7.49976C17.8785 7.64299 17.8915 7.9034 17.8915 8.28101C17.8915 8.65861 17.8785 8.93856 17.8525 9.12085C17.7874 9.85002 17.6669 10.5336 17.4911 11.1716C17.3154 11.8097 17.0647 12.4542 16.7392 13.1052C16.4267 13.7302 16.0719 14.3162 15.6747 14.863C15.2776 15.4099 14.8121 15.9568 14.2783 16.5037C13.9658 16.8162 13.6695 17.0961 13.3896 17.3435C13.1096 17.5909 12.7939 17.8448 12.4423 18.1052C12.1689 18.3136 11.8629 18.5284 11.5244 18.7498C11.1858 18.9711 10.9319 19.1274 10.7626 19.2185C10.6975 19.2445 10.6129 19.2706 10.5087 19.2966C10.4046 19.3227 10.3134 19.3357 10.2353 19.3357C10.1572 19.3357 10.066 19.3227 9.96185 19.2966C9.85769 19.2706 9.77305 19.2445 9.70795 19.2185C9.53868 19.1404 9.28802 18.9906 8.95599 18.7693C8.62396 18.5479 8.32123 18.3331 8.04779 18.1248C7.68321 17.8513 7.36094 17.5942 7.08099 17.3533C6.80105 17.1124 6.50482 16.8292 6.19232 16.5037C5.65847 15.9568 5.19297 15.4099 4.79584 14.863C4.3987 14.3162 4.04388 13.7302 3.73138 13.1052C3.53607 12.7016 3.3668 12.311 3.22357 11.9333C3.08034 11.5557 2.96316 11.1651 2.87201 10.7615C2.72878 10.1886 2.63763 9.59611 2.59857 8.98413C2.55951 8.37215 2.57253 7.80575 2.63763 7.28491C2.68972 6.86825 2.78086 6.44832 2.91107 6.02515C3.04128 5.60197 3.19753 5.20158 3.37982 4.82397C3.69232 4.212 4.06993 3.6521 4.51263 3.14429C4.96836 2.63647 5.47618 2.20028 6.03607 1.83569C6.59597 1.47111 7.19493 1.18465 7.83295 0.976318C8.47097 0.767984 9.12852 0.644287 9.8056 0.605225ZM9.70795 1.85522C9.42149 1.88127 9.13177 1.92684 8.83881 1.99194C8.54584 2.05705 8.25612 2.14168 7.96967 2.24585C7.83946 2.29793 7.64414 2.38908 7.38373 2.51929C7.12331 2.6495 6.93451 2.75366 6.81732 2.83179C6.07513 3.30054 5.45339 3.8995 4.95209 4.62866C4.45079 5.35783 4.1155 6.14559 3.94623 6.99194C3.88112 7.35653 3.84532 7.7439 3.83881 8.15405C3.8323 8.56421 3.85508 8.99064 3.90717 9.43335C3.99831 10.1625 4.17409 10.8787 4.43451 11.5818C4.69493 12.2849 5.03998 12.9653 5.46967 13.6228C5.89935 14.2804 6.40066 14.9151 6.97357 15.5271C7.55951 16.1261 8.21706 16.699 8.94623 17.2458C9.10248 17.35 9.28802 17.4737 9.50287 17.6169C9.71771 17.7602 9.89675 17.8708 10.04 17.949L10.2353 18.0857L10.4892 17.9294C11.2314 17.4737 11.9508 16.9399 12.6474 16.3279C13.344 15.7159 13.9462 15.0714 14.454 14.3943C14.8316 13.9125 15.1572 13.4177 15.4306 12.9099C15.704 12.4021 15.9319 11.8813 16.1142 11.3474C16.2965 10.8136 16.4332 10.2732 16.5244 9.72632C16.6025 9.17944 16.635 8.63257 16.622 8.08569C16.622 7.85132 16.6122 7.65601 16.5927 7.49976C16.5732 7.34351 16.5439 7.16121 16.5048 6.95288C16.3356 6.10653 16.0003 5.32202 15.499 4.59937C14.9977 3.87671 14.3824 3.28752 13.6533 2.83179C13.5231 2.75366 13.331 2.6495 13.0771 2.51929C12.8232 2.38908 12.6311 2.29793 12.5009 2.24585C12.0452 2.0896 11.5797 1.97567 11.1044 1.90405C10.6292 1.83244 10.1637 1.81616 9.70795 1.85522ZM9.82513 4.12085C10.7887 4.0297 11.6773 4.2478 12.4911 4.77515C13.305 5.30249 13.8616 6.02189 14.1611 6.93335C14.3173 7.41512 14.3857 7.90991 14.3661 8.41772C14.3466 8.92554 14.2392 9.41382 14.0439 9.88257C13.7574 10.5466 13.3245 11.0968 12.7451 11.533C12.1656 11.9692 11.5113 12.2393 10.7822 12.3435C10.652 12.3695 10.4697 12.3826 10.2353 12.3826C10.0009 12.3826 9.81862 12.3695 9.68842 12.3435C9.23269 12.2784 8.803 12.1482 8.39935 11.9529C7.99571 11.7576 7.63763 11.5037 7.32513 11.1912C6.76524 10.6313 6.39414 9.97046 6.21185 9.20874C6.02956 8.44702 6.06211 7.68856 6.30951 6.93335C6.55691 6.16512 7.00287 5.52384 7.6474 5.00952C8.29193 4.4952 9.01784 4.19897 9.82513 4.12085ZM9.92279 5.37085C9.72748 5.39689 9.5517 5.43595 9.39545 5.48804C9.2392 5.54012 9.08946 5.59871 8.94623 5.66382C8.51654 5.87215 8.16498 6.17163 7.89154 6.56226C7.6181 6.95288 7.44883 7.38908 7.38373 7.87085C7.35769 7.97502 7.34792 8.13452 7.35443 8.34937C7.36094 8.56421 7.37722 8.72371 7.40326 8.82788C7.46836 9.10132 7.56602 9.36174 7.69623 9.60913C7.82644 9.85653 7.99571 10.0779 8.20404 10.2732C8.45144 10.5206 8.72813 10.7159 9.03412 10.8591C9.34011 11.0024 9.66888 11.087 10.0204 11.113C10.4371 11.1521 10.8408 11.0968 11.2314 10.947C11.622 10.7973 11.9671 10.5727 12.2665 10.2732C12.4749 10.0779 12.6441 9.85653 12.7744 9.60913C12.9046 9.36174 13.0022 9.10132 13.0673 8.82788C13.0934 8.72371 13.1096 8.56746 13.1161 8.35913C13.1227 8.1508 13.1129 7.98804 13.0869 7.87085C13.0348 7.45418 12.8948 7.06356 12.6669 6.69897C12.4391 6.33439 12.1363 6.03491 11.7587 5.80054C11.6415 5.72241 11.4951 5.64754 11.3193 5.57593C11.1435 5.50431 10.9775 5.44897 10.8212 5.40991C10.7301 5.39689 10.5771 5.38387 10.3622 5.37085C10.1474 5.35783 10.0009 5.35783 9.92279 5.37085Z" fill="black"/>
</g>
<defs>
<clipPath id="clip0_944_253">
<rect width="20" height="20" fill="white" transform="matrix(1 0 0 -1 0.235291 19.9998)"/>
</clipPath>
</defs>
</svg>
