<svg width="22" height="16" viewBox="0 0 22 16" fill="none" xmlns="http://www.w3.org/2000/svg">
<path opacity="0.3" fill-rule="evenodd" clip-rule="evenodd" d="M21.6616 7.23594L14.5266 0.316596C14.0913 -0.105451 13.3852 -0.105451 12.95 0.316596C12.5145 0.739175 12.5145 1.42357 12.95 1.84562L18.1818 6.91927H1.12649C0.510887 6.91927 0.0117188 7.40314 0.0117188 8.00046C0.0117188 8.59723 0.510887 9.08164 1.12649 9.08164H18.1818L12.9501 14.1553C12.5147 14.5768 12.5147 15.2617 12.9501 15.6838C13.1678 15.8945 13.4532 15.9999 13.7385 15.9999C14.0238 15.9999 14.3091 15.8945 14.5268 15.6838L21.6616 8.76443C22.097 8.34294 22.097 7.65799 21.6616 7.23594Z" fill="#0F2137"/>
</svg>
