<svg width="33" height="32" viewBox="0 0 33 32" fill="none" xmlns="http://www.w3.org/2000/svg">
<path d="M18.3706 7.17316L22.218 9.74298L22.6096 10.3016C22.7478 10.1452 22.9782 9.81002 22.9782 9.81002C22.9552 9.67595 22.5866 7.91059 22.4714 7.46366C21.4347 3.15082 20.4901 3.15082 16.0207 3.15082C11.5283 3.15082 10.6067 3.15082 9.57001 7.46366C9.43178 8.04466 9.10925 9.67595 9.06317 9.81002C9.06317 9.81002 9.27052 10.1229 9.43178 10.3016L9.84647 9.67595L10.0538 9.6536C10.0999 9.6536 14.6154 9.05025 18.2554 7.2402L18.3706 7.17316Z" fill="black"/>
<path d="M16.0017 23.352C17.3149 23.3744 20.2408 20.9163 20.2408 20.9163V20.1565C18.6742 21.2068 17.3149 22.123 16.0017 22.123C15.9787 22.123 15.9787 22.123 15.9557 22.123C14.6194 22.123 13.2602 21.1844 11.6475 20.0895V20.8493C11.6475 20.8493 14.6194 23.352 15.9557 23.352C15.9787 23.352 16.0017 23.352 16.0017 23.352Z" fill="black"/>
<path d="M31.0211 26.4581C29.8001 24.8939 27.0816 23.5308 21.3912 21.6537V22.6816C21.3912 25.8995 18.6496 27.5755 15.9542 27.5755C13.2587 27.5755 10.5172 25.8771 10.5172 22.6816V21.676C4.91891 23.5308 2.22344 24.8939 1.00242 26.4581C0.818115 26.7263 0.495581 27.1956 0.0117798 32H32.0118C31.528 27.1956 31.2054 26.7263 31.0211 26.4581Z" fill="black"/>
<path d="M26.5987 10.838C26.5987 9.98881 26.3222 9.60892 26.0457 9.20669C25.7923 8.87149 25.5159 8.46926 25.4928 7.88825C25.1703 2.34636 22.3366 0 16.0241 0C8.53674 0 6.83192 3.15083 6.55546 7.86591C6.53242 8.46926 6.23293 8.84915 5.97951 9.18434C5.68001 9.58658 5.38051 9.96646 5.42659 10.905C5.6109 13.8547 6.67065 14.5922 6.99319 14.7486C7.26964 14.8827 7.50003 14.8603 7.61522 14.7933C7.73041 14.7262 7.77648 14.6145 7.79952 14.4804C7.38483 13.9441 7.10838 13.162 7.01622 12.2905C6.87799 10.7709 7.24661 9.60892 8.0299 9.162C8.14509 8.62568 8.35244 7.55306 8.46763 7.08379C9.66561 2.16759 11.2322 1.94413 16.0011 1.94413C20.793 1.94413 22.3596 2.16759 23.5346 7.08379C23.6267 7.46368 23.8571 8.60334 23.9723 9.162C24.7556 9.60892 25.1242 10.7709 24.986 12.3128C24.8938 13.229 24.5943 14.0111 24.1566 14.5475C23.9723 14.7709 23.7419 14.972 23.4885 15.1732C21.8528 16.4916 20.77 17.0949 17.6829 17.1843C17.4755 16.9609 17.1761 16.8044 16.8535 16.8044C16.2545 16.8044 15.7477 17.2737 15.7477 17.8771C15.7477 18.4581 16.2315 18.9497 16.8535 18.9497C17.3834 18.9497 17.8442 18.5698 17.9363 18.0782C21.2538 17.9441 22.4748 17.162 24.2488 15.7542C24.8247 15.2849 25.2624 14.972 25.6771 14.4134C26.2531 13.6536 26.4374 12.067 26.5756 10.905L26.5987 10.838Z" fill="black"/>
</svg>
