<svg width="25" height="24" viewBox="0 0 25 24" fill="none" xmlns="http://www.w3.org/2000/svg">
<path d="M12.0852 23.9998H12.0324C5.43026 23.9998 0.0588379 18.6283 0.0588379 12.0262V11.9734C0.0588379 5.37119 5.43026 -0.000244141 12.0324 -0.000244141H12.0852C18.6874 -0.000244141 24.0588 5.37119 24.0588 11.9734V12.0262C24.0588 18.6283 18.6874 23.9998 12.0852 23.9998ZM12.0324 0.812131C5.87788 0.812131 0.871213 5.81881 0.871213 11.9734V12.0262C0.871213 18.1807 5.87788 23.1874 12.0324 23.1874H12.0852C18.2398 23.1874 23.2465 18.1807 23.2465 12.0262V11.9734C23.2465 5.81881 18.2398 0.812131 12.0852 0.812131H12.0324Z" fill="black"/>
<path d="M13.6736 9.30891V11.8346H16.798L16.3032 15.2368H13.6736V23.0754C13.1463 23.1485 12.6069 23.1867 12.0594 23.1867C11.4274 23.1867 10.8067 23.1363 10.2023 23.0389V15.2368H7.3208V11.8346H10.2023V8.74431C10.2023 6.8271 11.7564 5.27222 13.6744 5.27222V5.27384C13.6801 5.27384 13.6849 5.27222 13.6906 5.27222H16.7988V8.21464H14.7678C14.1642 8.21464 13.6744 8.7045 13.6744 9.30809L13.6736 9.30891Z" fill="black"/>
</svg>
