<svg width="25" height="24" viewBox="0 0 25 24" fill="none" xmlns="http://www.w3.org/2000/svg">
<path d="M12.2029 23.9998H12.1501C5.54794 23.9998 0.176514 18.6283 0.176514 12.0262V11.9733C0.176514 5.37117 5.54794 -0.000244141 12.1501 -0.000244141H12.2029C18.8051 -0.000244141 24.1765 5.37117 24.1765 11.9733V12.0262C24.1765 18.6283 18.8051 23.9998 12.2029 23.9998ZM12.1501 0.812131C5.99556 0.812131 0.988889 5.81879 0.988889 11.9733V12.0262C0.988889 18.1807 5.99556 23.1874 12.1501 23.1874H12.2029C18.3575 23.1874 23.3641 18.1807 23.3641 12.0262V11.9733C23.3641 5.81879 18.3575 0.812131 12.2029 0.812131H12.1501Z" fill="black"/>
<path d="M15.7648 5.12305H8.58988C6.60768 5.12305 4.99512 6.73561 4.99512 8.71781V15.2818C4.99512 17.264 6.60768 18.8765 8.58988 18.8765H15.7648C17.747 18.8765 19.3595 17.264 19.3595 15.2818V8.71781C19.3595 6.73561 17.747 5.12305 15.7648 5.12305ZM6.26324 8.71781C6.26324 7.43507 7.30714 6.39115 8.58988 6.39115H15.7648C17.0475 6.39115 18.0914 7.43507 18.0914 8.71781V15.2818C18.0914 16.5645 17.0475 17.6084 15.7648 17.6084H8.58988C7.30714 17.6084 6.26324 16.5645 6.26324 15.2818V8.71781Z" fill="black"/>
<path d="M12.177 15.3427C14.0203 15.3427 15.5207 13.8431 15.5207 11.999C15.5207 10.1549 14.0211 8.65527 12.177 8.65527C10.3329 8.65527 8.83325 10.1549 8.83325 11.999C8.83325 13.8431 10.3329 15.3427 12.177 15.3427ZM12.177 9.92419C13.3216 9.92419 14.2526 10.8552 14.2526 11.9998C14.2526 13.1445 13.3216 14.0754 12.177 14.0754C11.0324 14.0754 10.1014 13.1445 10.1014 11.9998C10.1014 10.8552 11.0324 9.92419 12.177 9.92419Z" fill="black"/>
<path d="M15.8307 9.19617C16.3271 9.19617 16.7317 8.79232 16.7317 8.295C16.7317 7.79768 16.3279 7.3938 15.8307 7.3938C15.3336 7.3938 14.9298 7.79768 14.9298 8.295C14.9298 8.79232 15.3336 9.19617 15.8307 9.19617Z" fill="black"/>
</svg>
