<svg width="41" height="40" viewBox="0 0 41 40" fill="none" xmlns="http://www.w3.org/2000/svg">
<path d="M20.4566 39.9997C31.5022 39.9997 40.4565 31.0455 40.4565 19.9998C40.4565 8.95424 31.5022 0 20.4566 0C9.41102 0 0.456787 8.95424 0.456787 19.9998C0.456787 31.0455 9.41102 39.9997 20.4566 39.9997Z" fill="black"/>
<path d="M15.603 20.565H23.8739L25.8616 18.5773H16.1748V12.1921L20.4839 8.47528L24.7384 12.1921V15.5617H26.7466V11.3139L26.0658 10.7149L25.9842 10.64L20.4839 5.70471L16.0319 9.65295L14.4662 11.0144C14.3716 11.1079 14.2964 11.2192 14.245 11.3418C14.1936 11.4645 14.167 11.5962 14.1667 11.7292V20.5787L15.603 20.565Z" fill="white"/>
<path d="M26.733 19.4486L24.7452 21.4363V26.9298L20.4294 30.633L16.1817 26.9366V23.4037H14.1395V27.8216L14.8542 28.4411L19.6874 32.7569L20.4703 33.4376L24.8814 29.3532L26.0386 28.3321L26.7194 27.7671V19.5575C26.7272 19.5217 26.7318 19.4853 26.733 19.4486Z" fill="#878787"/>
</svg>
