<svg width="18" height="18" viewBox="0 0 18 18" fill="none" xmlns="http://www.w3.org/2000/svg">
<path d="M15.75 14.25L15.75 7.55278C15.75 7.05125 15.4993 6.5829 15.082 6.30471L9.83205 2.8047C9.3282 2.4688 8.6718 2.4688 8.16795 2.8047L2.91795 6.3047C2.50065 6.5829 2.25 7.05125 2.25 7.55278L2.25 14.25M15.75 14.25C15.75 15.0784 15.0784 15.75 14.25 15.75L3.75 15.75C2.92157 15.75 2.25 15.0784 2.25 14.25M15.75 14.25L10.6875 10.875M2.25 14.25L7.3125 10.875M15.75 7.50001L10.6875 10.875M2.25 7.5L7.3125 10.875M7.3125 10.875L8.16795 11.4453C8.6718 11.7812 9.3282 11.7812 9.83205 11.4453L10.6875 10.875" stroke="black" stroke-linecap="round" stroke-linejoin="round"/>
</svg>
