<svg width="18" height="18" viewBox="0 0 18 18" fill="none" xmlns="http://www.w3.org/2000/svg">
<g clip-path="url(#clip0_2916_2142)">
<path d="M3.37499 0.5625C3.4453 0.550781 3.57421 0.547852 3.76171 0.553711C3.94921 0.55957 4.07225 0.568359 4.13085 0.580078C4.27147 0.626953 4.40331 0.679688 4.52636 0.738281C4.6494 0.796875 4.76366 0.873047 4.86913 0.966797C4.90429 0.990234 5.0537 1.13086 5.31737 1.38867C5.58104 1.64648 5.87694 1.94531 6.20507 2.28516C6.70897 2.78906 7.04589 3.12598 7.21581 3.2959C7.38573 3.46582 7.48827 3.58594 7.52343 3.65625C7.59374 3.75 7.6494 3.84375 7.69042 3.9375C7.73143 4.03125 7.76366 4.13672 7.7871 4.25391C7.81054 4.32422 7.82518 4.38574 7.83104 4.43848C7.8369 4.49121 7.83983 4.57617 7.83983 4.69336C7.83983 4.81055 7.8369 4.89551 7.83104 4.94824C7.82518 5.00098 7.81054 5.0625 7.7871 5.13281C7.75194 5.29688 7.69628 5.44336 7.62011 5.57227C7.54393 5.70117 7.44725 5.83008 7.33007 5.95898C7.23632 6.07617 7.17186 6.17285 7.13671 6.24902C7.10155 6.3252 7.08397 6.41602 7.08397 6.52148C7.08397 6.60352 7.09569 6.67383 7.11913 6.73242C7.14257 6.79102 7.17186 6.85547 7.20702 6.92578C7.23046 6.94922 7.43261 7.1543 7.81347 7.54102C8.19432 7.92773 8.64257 8.38477 9.15819 8.91211C9.91991 9.66211 10.4326 10.166 10.6963 10.4238C10.9599 10.6816 11.1152 10.8223 11.1621 10.8457C11.2207 10.8809 11.2939 10.9043 11.3818 10.916C11.4697 10.9277 11.5488 10.9277 11.6191 10.916C11.6894 10.8926 11.7568 10.8633 11.8213 10.8281C11.8857 10.793 11.9648 10.7344 12.0586 10.6523C12.2578 10.4883 12.4599 10.3682 12.665 10.292C12.8701 10.2158 13.0898 10.1777 13.3242 10.1777C13.5234 10.1777 13.7197 10.207 13.9131 10.2656C14.1064 10.3242 14.2851 10.418 14.4492 10.5469C14.4726 10.5703 14.6191 10.7109 14.8887 10.9688C15.1582 11.2266 15.4629 11.5312 15.8027 11.8828C16.3301 12.3984 16.6787 12.7441 16.8486 12.9199C17.0185 13.0957 17.1211 13.2188 17.1562 13.2891C17.3672 13.6172 17.4726 13.9658 17.4726 14.335C17.4726 14.7041 17.3613 15.0527 17.1387 15.3809C17.0918 15.4512 16.9307 15.627 16.6553 15.9082C16.3799 16.1895 16.1836 16.377 16.0664 16.4707C15.75 16.7285 15.4131 16.9365 15.0557 17.0947C14.6982 17.2529 14.3086 17.3672 13.8867 17.4375C13.7344 17.4609 13.5088 17.4727 13.2099 17.4727C12.9111 17.4727 12.6855 17.4551 12.5332 17.4199C12.2519 17.373 11.9912 17.3086 11.751 17.2266C11.5107 17.1445 11.2793 17.0391 11.0566 16.9102C10.916 16.8281 10.6435 16.6465 10.2392 16.3652C9.83495 16.084 9.46288 15.8086 9.12304 15.5391C8.38475 14.9766 7.66405 14.3848 6.96093 13.7637C6.26952 13.1426 5.60448 12.4951 4.96581 11.8213C4.32714 11.1475 3.71483 10.4473 3.12889 9.7207C2.53124 8.99414 1.96874 8.25 1.44139 7.48828C1.30077 7.28906 1.20409 7.13965 1.15136 7.04004C1.09862 6.94043 1.0371 6.82031 0.966785 6.67969C0.861316 6.48047 0.773425 6.25781 0.703113 6.01172C0.6328 5.76562 0.585925 5.51953 0.562488 5.27344C0.53905 5.13281 0.530261 4.94531 0.536121 4.71094C0.54198 4.47656 0.556628 4.2832 0.580066 4.13086C0.63866 3.73242 0.741199 3.36328 0.887683 3.02344C1.03417 2.68359 1.23046 2.34961 1.47655 2.02148C1.5703 1.9043 1.76659 1.69629 2.06542 1.39746C2.36425 1.09863 2.55468 0.919922 2.63671 0.861328C2.75389 0.791016 2.87401 0.729492 2.99706 0.676758C3.12011 0.624023 3.24608 0.585938 3.37499 0.5625ZM3.56835 1.66992C3.46288 1.69336 3.37206 1.73145 3.29589 1.78418C3.21971 1.83691 3.07616 1.97461 2.86522 2.19727C2.60741 2.45508 2.42284 2.65723 2.31151 2.80371C2.20018 2.9502 2.09178 3.12891 1.98632 3.33984C1.86913 3.58594 1.7871 3.81738 1.74022 4.03418C1.69335 4.25098 1.66991 4.5 1.66991 4.78125C1.66991 5.05078 1.69042 5.28516 1.73143 5.48438C1.77245 5.68359 1.84569 5.90039 1.95116 6.13477C2.00975 6.25195 2.06835 6.36328 2.12694 6.46875C2.18553 6.57422 2.291 6.73242 2.44335 6.94336C3.01757 7.77539 3.63866 8.58984 4.30663 9.38672C4.96288 10.1719 5.65429 10.9277 6.38085 11.6543C7.10741 12.3809 7.86327 13.0723 8.64843 13.7285C9.4453 14.3848 10.2598 15.0059 11.0918 15.5918C11.3262 15.7559 11.5107 15.876 11.6455 15.9521C11.7803 16.0283 11.9238 16.0898 12.0762 16.1367C12.2754 16.207 12.4658 16.2598 12.6474 16.2949C12.8291 16.3301 13.0254 16.3477 13.2363 16.3477C13.5996 16.3477 13.9482 16.292 14.2822 16.1807C14.6162 16.0693 14.9355 15.9023 15.2402 15.6797C15.3574 15.5977 15.5478 15.4219 15.8115 15.1523C16.0752 14.8828 16.2246 14.7246 16.2598 14.6777C16.3183 14.5605 16.3476 14.4404 16.3476 14.3174C16.3476 14.1943 16.3183 14.0801 16.2598 13.9746C16.248 13.9512 16.1133 13.8047 15.8555 13.5352C15.6094 13.2773 15.334 12.9961 15.0293 12.6914C14.7246 12.3867 14.4375 12.1055 14.168 11.8477C13.9101 11.5898 13.7637 11.4492 13.7285 11.4258C13.6582 11.3789 13.5937 11.3467 13.5351 11.3291C13.4766 11.3115 13.4062 11.3027 13.3242 11.3027C13.207 11.3027 13.1103 11.3203 13.0342 11.3555C12.958 11.3906 12.8672 11.4551 12.7617 11.5488C12.6328 11.6543 12.5098 11.7422 12.3926 11.8125C12.2754 11.8828 12.1465 11.9355 12.0058 11.9707C11.7246 12.0527 11.4404 12.0674 11.1533 12.0146C10.8662 11.9619 10.6055 11.8477 10.3711 11.6719C10.3242 11.6367 10.1221 11.4434 9.76464 11.0918C9.40722 10.7402 8.9121 10.2539 8.27929 9.63281C7.541 8.88281 7.03124 8.36426 6.74999 8.07715C6.46874 7.79004 6.31054 7.61719 6.27538 7.55859C6.18163 7.41797 6.10839 7.26855 6.05565 7.11035C6.00292 6.95215 5.97069 6.78516 5.95897 6.60938C5.94725 6.35156 5.98241 6.11133 6.06444 5.88867C6.14647 5.66602 6.28124 5.44922 6.46874 5.23828C6.53905 5.16797 6.58886 5.10645 6.61815 5.05371C6.64745 5.00098 6.67382 4.93945 6.69725 4.86914C6.72069 4.78711 6.72655 4.69922 6.71483 4.60547C6.70311 4.51172 6.67382 4.42383 6.62694 4.3418C6.61522 4.30664 6.51268 4.18945 6.31932 3.99023C6.12597 3.79102 5.81835 3.48633 5.39647 3.07617C5.08007 2.74805 4.79589 2.46094 4.54393 2.21484C4.29198 1.96875 4.15429 1.83398 4.13085 1.81055C4.06054 1.75195 3.97557 1.71094 3.87596 1.6875C3.77636 1.66406 3.67382 1.6582 3.56835 1.66992Z" fill="black"/>
</g>
<defs>
<clipPath id="clip0_2916_2142">
<rect width="18" height="18" fill="white" transform="matrix(1 0 0 -1 0 18)"/>
</clipPath>
</defs>
</svg>
