<svg width="25" height="24" viewBox="0 0 25 24" fill="none" xmlns="http://www.w3.org/2000/svg">
<path d="M12.1441 23.9998H12.0913C5.4891 23.9998 0.117676 18.6283 0.117676 12.0262V11.9733C0.117676 5.37117 5.4891 -0.000244141 12.0913 -0.000244141H12.1441C18.7463 -0.000244141 24.1177 5.37117 24.1177 11.9733V12.0262C24.1177 18.6283 18.7463 23.9998 12.1441 23.9998ZM12.0913 0.812131C5.93672 0.812131 0.930051 5.81879 0.930051 11.9733V12.0262C0.930051 18.1807 5.93672 23.1874 12.0913 23.1874H12.1441C18.2986 23.1874 23.3053 18.1807 23.3053 12.0262V11.9733C23.3053 5.81879 18.2986 0.812131 12.1441 0.812131H12.0913Z" fill="black"/>
<path d="M17.7227 8.79466V10.984C17.34 10.9466 16.8428 10.8597 16.2929 10.6582C15.5747 10.395 15.0402 10.0352 14.6901 9.75652V14.1815L14.6811 14.1677C14.6868 14.2554 14.6901 14.3448 14.6901 14.435C14.6901 16.6324 12.902 18.4213 10.7037 18.4213C8.50545 18.4213 6.71741 16.6324 6.71741 14.435C6.71741 12.2375 8.50545 10.4478 10.7037 10.4478C10.919 10.4478 11.1302 10.4649 11.3366 10.4982V12.6559C11.1384 12.5852 10.9255 12.547 10.7037 12.547C9.66308 12.547 8.81577 13.3935 8.81577 14.435C8.81577 15.4764 9.66308 16.3229 10.7037 16.3229C11.7444 16.3229 12.5917 15.4756 12.5917 14.435C12.5917 14.396 12.5909 14.357 12.5884 14.318V5.71899H14.7762C14.7843 5.90422 14.7916 6.09107 14.7997 6.27629C14.8144 6.64105 14.9443 6.99119 15.171 7.27796C15.4366 7.61509 15.829 8.00664 16.3798 8.31941C16.8957 8.61105 17.3798 8.73698 17.7227 8.79628V8.79466Z" fill="black"/>
</svg>
