<svg width="24" height="24" viewBox="0 0 24 24" fill="none" xmlns="http://www.w3.org/2000/svg">
<path d="M12.0264 23.9998H11.9736C5.37143 23.9998 0 18.6283 0 12.0262V11.9733C0 5.37117 5.37143 -0.000244141 11.9736 -0.000244141H12.0264C18.6286 -0.000244141 24 5.37117 24 11.9733V12.0262C24 18.6283 18.6286 23.9998 12.0264 23.9998ZM11.9736 0.812131C5.81905 0.812131 0.812375 5.81879 0.812375 11.9733V12.0262C0.812375 18.1807 5.81905 23.1874 11.9736 23.1874H12.0264C18.181 23.1874 23.1876 18.1807 23.1876 12.0262V11.9733C23.1876 5.81879 18.181 0.812131 12.0264 0.812131H11.9736Z" fill="black"/>
<path d="M5.10838 5.65552L10.4554 12.8044L5.07507 18.617H6.28633L10.9973 13.5283L14.8033 18.617H18.9244L13.2768 11.0659L18.2851 5.65552H17.0739L12.7358 10.3421L9.23037 5.65552H5.10919H5.10838ZM6.8891 6.54752H8.78194L17.1421 17.725H15.2493L6.8891 6.54752Z" fill="black"/>
</svg>
