<svg width="25" height="24" viewBox="0 0 25 24" fill="none" xmlns="http://www.w3.org/2000/svg">
<path d="M12.2354 23.9998C5.61829 23.9998 0.235352 18.6168 0.235352 11.9998C0.235352 5.38269 5.61829 -0.000244141 12.2354 -0.000244141C18.8524 -0.000244141 24.2354 5.38269 24.2354 11.9998C24.2354 18.6168 18.8524 23.9998 12.2354 23.9998ZM12.2354 0.814364C6.06796 0.814364 1.04996 5.83236 1.04996 11.9998C1.04996 18.1672 6.06796 23.1851 12.2354 23.1851C18.4028 23.1851 23.4207 18.1672 23.4207 11.9998C23.4207 5.83236 18.4028 0.814364 12.2354 0.814364Z" fill="black"/>
<path d="M19.5349 9.59751C19.4437 8.71692 19.2473 7.74346 18.5248 7.23188C17.9651 6.83517 17.2295 6.8205 16.5428 6.82132C15.0912 6.82213 13.6388 6.82376 12.1871 6.82458C10.7909 6.82621 9.39463 6.82703 7.99839 6.82866C7.41513 6.82947 6.84816 6.78386 6.30645 7.03638C5.84131 7.25307 5.47718 7.66525 5.25805 8.12387C4.9542 8.76171 4.89066 9.48428 4.854 10.1897C4.78639 11.4744 4.79372 12.7623 4.87437 14.0461C4.93384 14.9829 5.08454 16.0182 5.80872 16.6154C6.45064 17.144 7.35648 17.1701 8.18901 17.1709C10.8316 17.1734 13.475 17.1758 16.1184 17.1774C16.4573 17.1783 16.8108 17.1717 17.1562 17.1343C17.8356 17.061 18.4832 16.8663 18.9199 16.3628C19.3606 15.8553 19.4738 15.1491 19.5406 14.4803C19.7035 12.8576 19.7019 11.2194 19.5349 9.59751ZM10.6589 14.2742V9.72459L14.5984 11.999L10.6589 14.2742Z" fill="black"/>
</svg>
