<svg width="20" height="20" viewBox="0 0 20 20" fill="none" xmlns="http://www.w3.org/2000/svg">
<path d="M10 20C15.5228 20 20 15.5228 20 10C20 4.47715 15.5228 0 10 0C4.47715 0 0 4.47715 0 10C0 15.5228 4.47715 20 10 20Z" fill="white"/>
<path d="M2.06645 3.9118C1.28094 4.9338 0.688633 6.11173 0.34375 7.39137H5.54602L2.06645 3.9118Z" fill="#0052B4"/>
<path d="M19.6553 7.39137C19.3104 6.11176 18.7181 4.93383 17.9326 3.91183L14.4531 7.39137H19.6553Z" fill="#0052B4"/>
<path d="M0.34375 12.6088C0.688672 13.8884 1.28098 15.0663 2.06645 16.0882L5.5459 12.6088H0.34375Z" fill="#0052B4"/>
<path d="M16.0879 2.06723C15.0659 1.28172 13.888 0.68942 12.6084 0.344498V5.54672L16.0879 2.06723Z" fill="#0052B4"/>
<path d="M3.91113 17.9328C4.93313 18.7183 6.11105 19.3106 7.39066 19.6555V14.4533L3.91113 17.9328Z" fill="#0052B4"/>
<path d="M7.39062 0.344498C6.11102 0.68942 4.93309 1.28172 3.91113 2.06719L7.39062 5.54669V0.344498Z" fill="#0052B4"/>
<path d="M12.6084 19.6555C13.888 19.3106 15.0659 18.7183 16.0879 17.9328L12.6084 14.4533V19.6555Z" fill="#0052B4"/>
<path d="M14.4531 12.6088L17.9326 16.0883C18.7181 15.0663 19.3104 13.8884 19.6553 12.6088H14.4531Z" fill="#0052B4"/>
<path d="M19.9154 8.69566H11.3044H11.3044V0.0846484C10.8774 0.0290625 10.4421 0 10 0C9.55785 0 9.12262 0.0290625 8.69566 0.0846484V8.69559V8.69563H0.0846484C0.0290625 9.12262 0 9.55793 0 10C0 10.4421 0.0290625 10.8774 0.0846484 11.3043H8.69559H8.69563V19.9154C9.12262 19.9709 9.55785 20 10 20C10.4421 20 10.8774 19.971 11.3043 19.9154V11.3044V11.3044H19.9154C19.9709 10.8774 20 10.4421 20 10C20 9.55793 19.9709 9.12262 19.9154 8.69566Z" fill="#D80027"/>
<path d="M12.6084 12.6088L17.0707 17.0711C17.276 16.8659 17.4718 16.6514 17.6586 16.4291L13.8382 12.6087H12.6084V12.6088Z" fill="#D80027"/>
<path d="M7.39109 12.6087H7.39102L2.92871 17.0711C3.13387 17.2763 3.34836 17.4721 3.5707 17.6589L7.39109 13.8384V12.6087Z" fill="#D80027"/>
<path d="M7.39195 7.39137V7.39129L2.92961 2.92891C2.72438 3.13407 2.52859 3.34856 2.3418 3.5709L6.16223 7.39133H7.39195V7.39137Z" fill="#D80027"/>
<path d="M12.6084 7.39137L17.0708 2.92894C16.8656 2.72371 16.6511 2.52793 16.4288 2.34117L12.6084 6.1616V7.39137Z" fill="#D80027"/>
</svg>
