<svg width="24" height="25" viewBox="0 0 24 25" fill="none" xmlns="http://www.w3.org/2000/svg">
<path d="M12.157 2.96994C13.4192 2.96994 14.6296 3.47133 15.5221 4.36382C16.4146 5.2563 16.916 6.46677 16.916 7.72894V9.98994C16.916 11.3094 16.386 12.5734 15.444 13.4979L14.441 14.4829C14.4331 14.4907 14.4268 14.5 14.4225 14.5102C14.4182 14.5204 14.416 14.5314 14.416 14.5424V14.6834C14.416 14.6929 14.4215 14.7014 14.43 14.7054L21.363 17.9729C21.7776 18.1683 22.1282 18.4776 22.3737 18.8646C22.6192 19.2517 22.7495 19.7006 22.7495 20.1589V20.4109C22.7495 20.957 22.5326 21.4807 22.1464 21.8669C21.7603 22.253 21.2366 22.4699 20.6905 22.4699H3.30851C2.22001 22.4699 1.32101 21.6224 1.25251 20.5169L1.24951 20.4109V20.1589C1.24951 19.2749 1.73201 18.4629 2.52501 18.0289L2.63601 17.9729L9.57801 14.7019C9.58001 14.7029 9.58101 14.7079 9.58001 14.7194L9.58301 14.6834V14.5424C9.58301 14.5224 9.57601 14.5039 9.58801 14.5174L9.55801 14.4824L8.55501 13.4979C7.65497 12.6132 7.12894 11.4167 7.08551 10.1554L7.08301 9.98994V7.72894C7.08301 5.15594 9.12801 3.05094 11.7055 2.97194L11.842 2.96994H12.157ZM12.157 4.46994H11.8535L11.74 4.47144C10.8937 4.49794 10.091 4.85276 9.50173 5.46077C8.91248 6.06878 8.58299 6.88224 8.58301 7.72894V9.97594L8.58501 10.1144C8.61692 10.9878 8.9823 11.8157 9.60601 12.4279L10.635 13.4394L10.716 13.5294C10.953 13.8134 11.083 14.1714 11.083 14.5424L11.082 14.7194L11.076 14.8294C11.0507 15.0925 10.9575 15.3446 10.8054 15.5607C10.6533 15.7769 10.4476 15.9498 10.2085 16.0624L3.29601 19.3194L3.22601 19.3549C3.08177 19.4339 2.96142 19.5502 2.87758 19.6916C2.79374 19.8331 2.74951 19.9945 2.74951 20.1589V20.3874L2.75051 20.4469C2.75966 20.5887 2.82243 20.7217 2.92608 20.8188C3.02972 20.9159 3.16646 20.97 3.30851 20.9699H20.6905C20.999 20.9699 21.2495 20.7199 21.2495 20.4109V20.1589C21.2495 19.8039 21.0445 19.4809 20.7235 19.3294L13.7905 16.0624C13.5289 15.9392 13.3078 15.7441 13.153 15.4999C12.9981 15.2558 12.9159 14.9726 12.916 14.6834V14.5424C12.916 14.1174 13.087 13.7104 13.39 13.4124L14.393 12.4274C14.7169 12.1095 14.9742 11.7302 15.1498 11.3116C15.3255 10.8931 15.416 10.4438 15.416 9.98994V7.72894C15.416 5.92894 13.957 4.46994 12.157 4.46994ZM22.2995 13.4699C22.4095 13.4699 22.4995 13.5599 22.4995 13.6699V14.7699C22.4995 14.823 22.4784 14.8739 22.4409 14.9114C22.4034 14.9489 22.3526 14.9699 22.2995 14.9699H20.1995C20.1732 14.9699 20.1472 14.9648 20.123 14.9547C20.0987 14.9447 20.0767 14.9299 20.0581 14.9114C20.0395 14.8928 20.0248 14.8707 20.0147 14.8465C20.0047 14.8222 19.9995 14.7962 19.9995 14.7699V13.6699C19.9995 13.5599 20.0895 13.4699 20.1995 13.4699H22.2995ZM22.2995 10.4699C22.4095 10.4699 22.4995 10.5599 22.4995 10.6699V11.7699C22.4995 11.823 22.4784 11.8739 22.4409 11.9114C22.4034 11.9489 22.3526 11.9699 22.2995 11.9699H18.6995C18.6732 11.9699 18.6472 11.9648 18.623 11.9547C18.5987 11.9447 18.5767 11.9299 18.5581 11.9114C18.5395 11.8928 18.5248 11.8707 18.5147 11.8465C18.5047 11.8222 18.4995 11.7962 18.4995 11.7699V10.6699C18.4995 10.5599 18.5895 10.4699 18.6995 10.4699H22.2995ZM22.2995 7.46994C22.4095 7.46994 22.4995 7.55994 22.4995 7.66994V8.76994C22.4995 8.82298 22.4784 8.87385 22.4409 8.91136C22.4034 8.94887 22.3526 8.96994 22.2995 8.96994H18.6995C18.6732 8.96994 18.6472 8.96477 18.623 8.95472C18.5987 8.94466 18.5767 8.92993 18.5581 8.91136C18.5395 8.89279 18.5248 8.87074 18.5147 8.84648C18.5047 8.82221 18.4995 8.7962 18.4995 8.76994V7.66994C18.4995 7.55994 18.5895 7.46994 18.6995 7.46994H22.2995Z" fill="#171C28"/>
</svg>
