<svg width="24" height="24" viewBox="0 0 24 24" fill="none" xmlns="http://www.w3.org/2000/svg">
<path d="M13.414 1.60048L16.8135 4.99948L20.5 4.99998C20.7626 4.99998 21.0227 5.05171 21.2654 5.15222C21.508 5.25273 21.7285 5.40005 21.9142 5.58576C22.0999 5.77148 22.2472 5.99196 22.3478 6.23461C22.4483 6.47726 22.5 6.73733 22.5 6.99998V20.5C22.5 20.7626 22.4483 21.0227 22.3478 21.2653C22.2472 21.508 22.0999 21.7285 21.9142 21.9142C21.7285 22.0999 21.508 22.2472 21.2654 22.3477C21.0227 22.4482 20.7626 22.5 20.5 22.5H3.5C3.23736 22.5 2.97728 22.4482 2.73463 22.3477C2.49198 22.2472 2.2715 22.0999 2.08579 21.9142C1.90007 21.7285 1.75275 21.508 1.65224 21.2653C1.55173 21.0227 1.5 20.7626 1.5 20.5V6.99998C1.5 6.73733 1.55173 6.47726 1.65224 6.23461C1.75275 5.99196 1.90007 5.77148 2.08579 5.58576C2.2715 5.40005 2.49198 5.25273 2.73463 5.15222C2.97728 5.05171 3.23736 4.99998 3.5 4.99998H7.1865L10.586 1.59998C10.9611 1.22504 11.4697 1.0144 12 1.0144C12.5303 1.0144 13.0389 1.22504 13.414 1.59998V1.60048ZM20.5 6.49998H3.5C3.37753 6.49999 3.25933 6.54496 3.16781 6.62633C3.0763 6.70771 3.01783 6.81985 3.0035 6.94148L3 6.99998V20.5C3.00002 20.6224 3.04498 20.7406 3.12636 20.8322C3.20774 20.9237 3.31987 20.9821 3.4415 20.9965L3.5 21H20.5C20.6225 21 20.7407 20.955 20.8322 20.8736C20.9237 20.7922 20.9822 20.6801 20.9965 20.5585L21 20.5V6.99998C21 6.87751 20.955 6.75931 20.8736 6.66779C20.7923 6.57627 20.6801 6.51781 20.5585 6.50348L20.5 6.49998ZM10.8 16C10.91 16 11 16.09 11 16.2V17.3C11 17.3262 10.9948 17.3523 10.9848 17.3765C10.9747 17.4008 10.96 17.4228 10.9414 17.4414C10.9228 17.46 10.9008 17.4747 10.8765 17.4848C10.8523 17.4948 10.8263 17.5 10.8 17.5H6.2C6.17374 17.5 6.14773 17.4948 6.12346 17.4848C6.0992 17.4747 6.07715 17.46 6.05858 17.4414C6.04001 17.4228 6.02528 17.4008 6.01522 17.3765C6.00517 17.3523 6 17.3262 6 17.3V16.2C6 16.09 6.09 16 6.2 16H10.8ZM17.8 13C17.91 13 18 13.09 18 13.2V14.3C18 14.3262 17.9948 14.3523 17.9848 14.3765C17.9747 14.4008 17.96 14.4228 17.9414 14.4414C17.9228 14.46 17.9008 14.4747 17.8765 14.4848C17.8523 14.4948 17.8263 14.5 17.8 14.5H6.2C6.17374 14.5 6.14773 14.4948 6.12346 14.4848C6.0992 14.4747 6.07715 14.46 6.05858 14.4414C6.04001 14.4228 6.02528 14.4008 6.01522 14.3765C6.00517 14.3523 6 14.3262 6 14.3V13.2C6 13.09 6.09 13 6.2 13H17.8ZM17.8 9.99998C17.91 9.99998 18 10.09 18 10.2V11.3C18 11.3262 17.9948 11.3522 17.9848 11.3765C17.9747 11.4008 17.96 11.4228 17.9414 11.4414C17.9228 11.46 17.9008 11.4747 17.8765 11.4848C17.8523 11.4948 17.8263 11.5 17.8 11.5H6.2C6.17374 11.5 6.14773 11.4948 6.12346 11.4848C6.0992 11.4747 6.07715 11.46 6.05858 11.4414C6.04001 11.4228 6.02528 11.4008 6.01522 11.3765C6.00517 11.3522 6 11.3262 6 11.3V10.2C6 10.09 6.09 9.99998 6.2 9.99998H17.8ZM11.69 2.62248L11.6465 2.66098L9.3075 4.99998H14.6925L12.3535 2.66148C12.2668 2.57489 12.1514 2.52313 12.0291 2.51603C11.9068 2.50893 11.7861 2.54699 11.69 2.62298V2.62248Z" fill="#171C28"/>
</svg>
