<svg width="24" height="24" viewBox="0 0 24 24" fill="none" xmlns="http://www.w3.org/2000/svg">
<path d="M3.75 16C4.34674 16 4.91903 16.2371 5.34099 16.659C5.76295 17.081 6 17.6533 6 18.25C6 18.8467 5.76295 19.419 5.34099 19.841C4.91903 20.2629 4.34674 20.5 3.75 20.5C3.15326 20.5 2.58097 20.2629 2.15901 19.841C1.73705 19.419 1.5 18.8467 1.5 18.25C1.5 17.6533 1.73705 17.081 2.15901 16.659C2.58097 16.2371 3.15326 16 3.75 16ZM3.75 17.5C3.55109 17.5 3.36032 17.579 3.21967 17.7197C3.07902 17.8603 3 18.0511 3 18.25C3 18.4489 3.07902 18.6397 3.21967 18.7803C3.36032 18.921 3.55109 19 3.75 19C3.94891 19 4.13968 18.921 4.28033 18.7803C4.42098 18.6397 4.5 18.4489 4.5 18.25C4.5 18.0511 4.42098 17.8603 4.28033 17.7197C4.13968 17.579 3.94891 17.5 3.75 17.5ZM22.3 17.5C22.41 17.5 22.5 17.59 22.5 17.7V18.8C22.5 18.8263 22.4948 18.8523 22.4848 18.8765C22.4747 18.9008 22.46 18.9229 22.4414 18.9414C22.4228 18.96 22.4008 18.9747 22.3765 18.9848C22.3523 18.9948 22.3263 19 22.3 19H7.7C7.67374 19 7.64773 18.9948 7.62346 18.9848C7.5992 18.9747 7.57715 18.96 7.55858 18.9414C7.54001 18.9229 7.52528 18.9008 7.51522 18.8765C7.50517 18.8523 7.5 18.8263 7.5 18.8V17.7C7.5 17.59 7.59 17.5 7.7 17.5H22.3ZM3.75 9.5C4.34674 9.5 4.91903 9.73705 5.34099 10.159C5.76295 10.581 6 11.1533 6 11.75C6 12.3467 5.76295 12.919 5.34099 13.341C4.91903 13.7629 4.34674 14 3.75 14C3.15326 14 2.58097 13.7629 2.15901 13.341C1.73705 12.919 1.5 12.3467 1.5 11.75C1.5 11.1533 1.73705 10.581 2.15901 10.159C2.58097 9.73705 3.15326 9.5 3.75 9.5ZM3.75 11C3.55109 11 3.36032 11.079 3.21967 11.2197C3.07902 11.3603 3 11.5511 3 11.75C3 11.9489 3.07902 12.1397 3.21967 12.2803C3.36032 12.421 3.55109 12.5 3.75 12.5C3.94891 12.5 4.13968 12.421 4.28033 12.2803C4.42098 12.1397 4.5 11.9489 4.5 11.75C4.5 11.5511 4.42098 11.3603 4.28033 11.2197C4.13968 11.079 3.94891 11 3.75 11ZM22.3 11C22.41 11 22.5 11.09 22.5 11.2V12.3C22.5 12.353 22.4789 12.4039 22.4414 12.4414C22.4039 12.4789 22.353 12.5 22.3 12.5H7.7C7.67374 12.5 7.64773 12.4948 7.62346 12.4848C7.5992 12.4747 7.57715 12.46 7.55858 12.4414C7.54001 12.4229 7.52528 12.4008 7.51522 12.3765C7.50517 12.3523 7.5 12.3263 7.5 12.3V11.2C7.5 11.09 7.59 11 7.7 11H22.3ZM3.75 3C4.04547 3 4.33806 3.0582 4.61104 3.17127C4.88402 3.28434 5.13206 3.45008 5.34099 3.65901C5.54992 3.86794 5.71566 4.11598 5.82873 4.38896C5.9418 4.66194 6 4.95453 6 5.25C6 5.54547 5.9418 5.83806 5.82873 6.11104C5.71566 6.38402 5.54992 6.63206 5.34099 6.84099C5.13206 7.04992 4.88402 7.21566 4.61104 7.32873C4.33806 7.4418 4.04547 7.5 3.75 7.5C3.15326 7.5 2.58097 7.26295 2.15901 6.84099C1.73705 6.41903 1.5 5.84674 1.5 5.25C1.5 4.65326 1.73705 4.08097 2.15901 3.65901C2.58097 3.23705 3.15326 3 3.75 3ZM3.75 4.5C3.55109 4.5 3.36032 4.57902 3.21967 4.71967C3.07902 4.86032 3 5.05109 3 5.25C3 5.44891 3.07902 5.63968 3.21967 5.78033C3.36032 5.92098 3.55109 6 3.75 6C3.94891 6 4.13968 5.92098 4.28033 5.78033C4.42098 5.63968 4.5 5.44891 4.5 5.25C4.5 5.05109 4.42098 4.86032 4.28033 4.71967C4.13968 4.57902 3.94891 4.5 3.75 4.5ZM22.3 4.5C22.41 4.5 22.5 4.59 22.5 4.7V5.8C22.5 5.85304 22.4789 5.90391 22.4414 5.94142C22.4039 5.97893 22.353 6 22.3 6H7.7C7.67374 6 7.64773 5.99483 7.62346 5.98478C7.5992 5.97473 7.57715 5.95999 7.55858 5.94142C7.54001 5.92285 7.52528 5.9008 7.51522 5.87654C7.50517 5.85227 7.5 5.82626 7.5 5.8V4.7C7.5 4.59 7.59 4.5 7.7 4.5H22.3Z" fill="#171C28"/>
</svg>
