<svg width="24" height="24" viewBox="0 0 24 24" fill="none" xmlns="http://www.w3.org/2000/svg">
<path d="M12 1.5C17.799 1.5 22.5 6.201 22.5 12C22.5 17.799 17.799 22.5 12 22.5C6.201 22.5 1.5 17.799 1.5 12C1.5 6.201 6.201 1.5 12 1.5ZM12 3C7.0295 3 3 7.0295 3 12C3 16.9705 7.0295 21 12 21C16.9705 21 21 16.9705 21 12C21 7.0295 16.9705 3 12 3Z" fill="#171C28"/>
<path d="M14.407 10.8464L13.8796 12.0129H6.75781L7.18928 10.8464H14.407ZM13.3896 13.0783L12.8089 14.2714H6.75781L7.18928 13.0783H13.3896ZM15.7919 7.93266L14.9396 9.75439C14.7976 9.65496 14.6254 9.54665 14.4229 9.42947C14.2241 9.30873 13.995 9.20752 13.7358 9.12584C13.4801 9.04062 13.196 8.998 12.8835 8.998C12.3899 8.998 11.9602 9.12229 11.5945 9.37087C11.2287 9.61945 10.9446 10.0065 10.7422 10.5321C10.5433 11.0577 10.4439 11.7324 10.4439 12.5562C10.4439 13.3872 10.5433 14.0637 10.7422 14.5857C10.9446 15.1042 11.2287 15.4859 11.5945 15.731C11.9602 15.9724 12.3899 16.0932 12.8835 16.0932C13.196 16.0932 13.4801 16.0523 13.7358 15.9707C13.9915 15.889 14.2152 15.7913 14.407 15.6777C14.6023 15.5641 14.7656 15.4593 14.897 15.3634L15.7599 17.1851C15.3729 17.5048 14.9343 17.7462 14.4442 17.9096C13.9542 18.0694 13.4339 18.1493 12.8835 18.1493C11.9531 18.1493 11.1293 17.9291 10.4119 17.4888C9.69815 17.0449 9.13885 16.4074 8.73402 15.5765C8.32919 14.742 8.12678 13.7352 8.12678 12.5562C8.12678 11.3808 8.32919 10.3741 8.73402 9.536C9.13885 8.69793 9.69815 8.05695 10.4119 7.61306C11.1293 7.16562 11.9531 6.94189 12.8835 6.94189C13.4553 6.94189 13.9844 7.02712 14.4709 7.19758C14.9574 7.36803 15.3977 7.61306 15.7919 7.93266Z" fill="#171C28"/>
</svg>
