<svg width="24" height="24" viewBox="0 0 24 24" fill="none" xmlns="http://www.w3.org/2000/svg">
<path d="M11.74 3.7515L11.8535 3.75H12.157C13.957 3.75 15.416 5.209 15.416 7.009V9.27C15.416 9.72396 15.3256 10.1734 15.1499 10.592C14.9743 11.0106 14.7169 11.39 14.393 11.708L13.39 12.693C13.24 12.8404 13.1208 13.0161 13.0394 13.2101C12.958 13.404 12.9161 13.6122 12.916 13.8225V13.9635C12.916 14.5535 13.257 15.0905 13.7905 15.3425L20.7235 18.6095C20.8809 18.6836 21.0139 18.801 21.107 18.9478C21.2002 19.0947 21.2496 19.2651 21.2495 19.439V19.691C21.2495 19.9995 20.9995 20.25 20.6905 20.25H3.30851C3.01351 20.25 2.76851 20.02 2.75051 19.727L2.74901 19.6675L2.74951 19.439C2.74951 19.104 2.93251 18.7955 3.22551 18.635L3.29551 18.6L10.2085 15.3425C10.4476 15.2299 10.6533 15.057 10.8054 14.8408C10.9575 14.6246 11.0507 14.3726 11.076 14.1095L11.082 13.9995L11.083 13.8225C11.083 13.4515 10.953 13.0935 10.716 12.809L10.635 12.7195L9.60601 11.708C8.9823 11.0958 8.61692 10.2679 8.58501 9.3945L8.58251 9.256V7.009C8.58249 6.16222 8.91205 5.34868 9.50141 4.74066C10.0908 4.13263 10.8936 3.77787 11.74 3.7515ZM9.58301 13.9635L9.57951 14C9.58051 13.9885 9.57951 13.9835 9.57751 13.9825L2.63601 17.253L2.52501 17.309C1.73201 17.743 1.24951 18.555 1.24951 19.439V19.691L1.25251 19.797C1.32101 20.9025 2.21951 21.75 3.30851 21.75H20.6905C21.2366 21.75 21.7603 21.5331 22.1464 21.1469C22.5326 20.7608 22.7495 20.2371 22.7495 19.691V19.439C22.7495 18.9806 22.6192 18.5317 22.3737 18.1447C22.1282 17.7576 21.7776 17.4484 21.363 17.253L14.43 13.985C14.4258 13.9831 14.4222 13.98 14.4198 13.9761C14.4173 13.9722 14.416 13.9676 14.416 13.963V13.822C14.416 13.7995 14.425 13.778 14.441 13.762L15.444 12.7775C15.9101 12.3199 16.2803 11.774 16.5331 11.1716C16.7858 10.5693 16.916 9.92269 16.916 9.2695V7.0085C16.9159 5.74642 16.4144 4.53608 15.522 3.6437C14.6295 2.75132 13.4191 2.25 12.157 2.25H11.842L11.7055 2.252C9.12801 2.331 7.08301 4.436 7.08301 7.009V9.27L7.08551 9.4355C7.12894 10.6968 7.65497 11.8933 8.55501 12.778L9.55801 13.763L9.58801 13.7975C9.57601 13.784 9.58301 13.8025 9.58301 13.8225V13.9635Z" fill="#171C28"/>
</svg>
