<svg fill="#b91c1c" class="h-9 text-red-700 fill-red-700" version="1.1" viewBox="0 0 308 56" xmlns="http://www.w3.org/2000/svg"><g transform="translate(-25.7 -152)"><g transform="matrix(.782 0 0 .782 -34.6 46.7)"><g stroke-width="0"><path d="m158 186v-30.9h4.72l19.4 23.8h-2.34v-23.8h5.69v30.9h-4.72l-19.4-23.8h2.34v23.8z"></path><path d="m198 168h15.4v4.72h-15.4zm.441 13.2h17.4v4.81h-23.2v-30.9h22.5v4.81h-16.8z"></path><path d="m217 186 13-17.9v4.32l-12.4-17.3h6.49l9.22 12.8-2.65.0441 9.13-12.8h6.22l-12.3 17v-4.15l13.1 18h-6.62l-9.71-13.6h2.6l-9.58 13.6z"></path><path d="m259 186v-26h-10.2v-4.85h26.2v4.85h-10.2v26z"></path><path d="m279 186v-30.9h5.74v30.9z"></path><path d="m292 186v-30.9h4.72l13.5 22.5h-2.47l13.3-22.5h4.72l.0441 30.9h-5.43l-.0441-22.4h1.15l-11.3 18.8h-2.56l-11.5-18.8h1.32v22.4z"></path><path d="m332 186v-30.9h4.72l13.5 22.5h-2.47l13.3-22.5h4.72l.0441 30.9h-5.43l-.0441-22.4h1.15l-11.3 18.8h-2.56l-11.5-18.8h1.32v22.4z"></path><path d="m387 186q-3.62 0-6.66-1.19t-5.3-3.31q-2.25-2.16-3.49-5.03-1.24-2.91-1.24-6.35t1.24-6.31q1.24-2.91 3.49-5.03 2.25-2.16 5.3-3.35t6.62-1.19q3.62 0 6.62 1.19 3.04 1.19 5.3 3.35 2.25 2.12 3.49 5.03 1.24 2.87 1.24 6.31t-1.24 6.35-3.49 5.03-5.3 3.31q-3 1.19-6.57 1.19zm-.0441-5.03q2.34 0 4.32-.794 1.99-.794 3.44-2.25 1.46-1.5 2.25-3.44.838-1.99.838-4.37t-.838-4.32q-.794-1.99-2.25-3.44-1.46-1.5-3.44-2.29-1.99-.794-4.32-.794t-4.32.794q-1.94.794-3.44 2.29-1.46 1.46-2.29 3.44-.794 1.94-.794 4.32 0 2.34.794 4.32.838 1.99 2.29 3.49 1.46 1.46 3.44 2.25 1.99.794 4.32.794z"></path><path d="m408 186q-1.5 0-2.56-1.01-1.06-1.06-1.06-2.65 0-1.68 1.06-2.65 1.06-1.01 2.56-1.01t2.56 1.01q1.06.971 1.06 2.65 0 1.59-1.06 2.65-1.06 1.01-2.56 1.01z"></path><path d="m416 186v-30.9h5.74v26h16.2v4.85z"></path><path d="m454 186q-6.35 0-9.97-3.57-3.57-3.57-3.57-10.3v-17.4h5.74v17.2q0 4.77 2.03 6.93 2.07 2.16 5.82 2.16t5.78-2.16 2.03-6.93v-17.2h5.65v17.4q0 6.75-3.62 10.3-3.57 3.57-9.88 3.57z"></path></g></g><path stroke-width=".0125" d="m48.8 192-2.1-2.1 10.1-10.1-10.1-10.1 4.2-4.19 14.3 14.3-14.3 14.3z"></path><path stroke-width=".0125" d="m53.5 154c-14.1 0-25.6 11.5-25.6 25.6s11.5 25.6 25.6 25.6 25.6-11.5 25.6-25.6-11.5-25.6-25.6-25.6zm0 5c11.4 0 20.6 9.19 20.6 20.6s-9.19 20.6-20.6 20.6-20.6-9.19-20.6-20.6 9.19-20.6 20.6-20.6z"></path></g></svg>