<svg width="24" height="25" viewBox="0 0 24 25" fill="none" xmlns="http://www.w3.org/2000/svg">
<path d="M10.672 3.71971C11.2677 3.71971 11.8577 3.83705 12.408 4.06503C12.9584 4.29301 13.4585 4.62716 13.8798 5.04842C14.301 5.46967 14.6352 5.96977 14.8632 6.52016C15.0912 7.07056 15.2085 7.66047 15.2085 8.25621V10.3832C15.2084 11.0085 15.0833 11.6274 14.8405 12.2036C14.5976 12.7797 14.242 13.3015 13.7945 13.7382L12.8585 14.6522C12.8506 14.66 12.8443 14.6692 12.84 14.6794C12.8357 14.6897 12.8335 14.7006 12.8335 14.7117L12.833 14.8107L19.3585 17.8682C19.7572 18.0549 20.0974 18.3471 20.3422 18.713C20.587 19.079 20.7271 19.5049 20.7475 19.9447L20.75 20.0567V20.2332C20.75 20.4941 20.6986 20.7524 20.5988 20.9934C20.499 21.2344 20.3526 21.4534 20.1682 21.6379C19.9837 21.8223 19.7647 21.9687 19.5237 22.0685C19.2827 22.1683 19.0244 22.2197 18.7635 22.2197H2.2365C1.73211 22.2198 1.24658 22.028 0.878408 21.6832C0.51024 21.3384 0.287008 20.8665 0.254 20.3632L0.2515 20.3042L0.25 20.2047L0.2505 20.0562C0.2505 19.1712 0.734 18.3572 1.5105 17.9342L1.557 17.9102L1.662 17.8577L8.1665 14.8107L8.167 14.7112C8.16712 14.6982 8.16421 14.6854 8.1585 14.6737L8.152 14.6647L8.1355 14.6462L7.2055 13.7377C6.38133 12.9312 5.88251 11.8497 5.804 10.6992L5.795 10.5322L5.792 10.3682V8.25571C5.792 5.80671 7.737 3.79921 10.207 3.72071L10.3405 3.71921L10.672 3.71971ZM10.672 5.21971H10.34L10.2295 5.22121C9.44162 5.24678 8.69457 5.57774 8.14629 6.14413C7.59801 6.71051 7.29148 7.46792 7.2915 8.25621V10.3687L7.294 10.5057C7.32544 11.3216 7.66869 12.0944 8.253 12.6647L9.2155 13.6057L9.2975 13.6957C9.5355 13.9802 9.6665 14.3397 9.6665 14.7117L9.666 14.8602L9.66 14.9662C9.63529 15.222 9.54437 15.467 9.3962 15.6769C9.24803 15.8869 9.04772 16.0547 8.815 16.1637L2.298 19.2167L2.228 19.2517C1.934 19.4117 1.75 19.7207 1.75 20.0567V20.2092L1.751 20.2662C1.75936 20.3892 1.81408 20.5044 1.90411 20.5886C1.99413 20.6727 2.11275 20.7196 2.236 20.7197H18.7635C18.8274 20.7197 18.8907 20.7071 18.9497 20.6827C19.0087 20.6582 19.0623 20.6224 19.1075 20.5772C19.1527 20.532 19.1885 20.4784 19.213 20.4194C19.2374 20.3604 19.25 20.2971 19.25 20.2332V20.0567C19.25 19.7012 19.0445 19.3772 18.722 19.2267L12.185 16.1637C11.9304 16.0444 11.7151 15.8551 11.5643 15.6179C11.4135 15.3806 11.3335 15.1053 11.3335 14.8242V14.7117C11.3335 14.2852 11.5055 13.8767 11.8105 13.5787L12.747 12.6647C13.0513 12.3677 13.2931 12.0129 13.4582 11.6211C13.6234 11.2293 13.7084 10.8084 13.7085 10.3832V8.25621C13.7085 7.85745 13.63 7.46259 13.4774 7.09419C13.3248 6.72578 13.1011 6.39104 12.8191 6.10908C12.5372 5.82711 12.2024 5.60345 11.834 5.45085C11.4656 5.29825 11.0708 5.21971 10.672 5.21971ZM15.8925 5.22321C16.8092 5.26423 17.6766 5.64941 18.3218 6.30189C18.967 6.95437 19.3423 7.82614 19.373 8.74321L19.375 8.86521V10.4697C19.3752 11.4487 18.992 12.3888 18.3075 13.0887L18.2025 13.1917L17.5695 13.7902L22.449 16.0047C22.8035 16.1656 23.1094 16.417 23.3359 16.7335C23.5624 17.0501 23.7016 17.4208 23.7395 17.8082L23.7475 17.9152L23.75 18.0237C23.7501 18.4426 23.5951 18.8467 23.3149 19.1582C23.0347 19.4696 22.6491 19.6662 22.2325 19.7102C22.1025 19.0287 21.9545 18.5317 21.789 18.2187L22.0545 18.2192C22.0802 18.2193 22.1056 18.2143 22.1293 18.2045C22.153 18.1947 22.1745 18.1804 22.1927 18.1623C22.2109 18.1442 22.2253 18.1226 22.2351 18.0989C22.2449 18.0753 22.25 18.0499 22.25 18.0242C22.25 17.7657 22.1115 17.5292 21.891 17.4027L21.829 17.3707L20.354 16.7007C20.2377 16.6307 20.1179 16.5668 19.995 16.5092L16.3985 14.8242C16.2725 14.7029 16.1723 14.5575 16.1038 14.3966C16.0353 14.2357 16 14.0626 16 13.8877C16 13.4912 16.15 13.1112 16.4165 12.8212L16.4925 12.7447L17.1725 12.1022C17.59 11.7074 17.8401 11.1675 17.8715 10.5937L17.875 10.4697V8.86471C17.8751 8.44044 17.7494 8.02566 17.5138 7.6728C17.2782 7.31994 16.9434 7.04482 16.5515 6.88221C16.4665 6.51621 16.2465 5.96271 15.8925 5.22271V5.22321Z" fill="#171C28"/>
</svg>
