<svg width="150" height="151" viewBox="0 0 150 151" fill="none" xmlns="http://www.w3.org/2000/svg">
<path d="M75 150.97C116.421 150.97 150 117.391 150 75.9697C150 34.5483 116.421 0.969696 75 0.969696C33.5786 0.969696 0 34.5483 0 75.9697C0 117.391 33.5786 150.97 75 150.97Z" fill="#FEE2E2"/>
<path d="M120 150.97H30V53.9697C34.242 53.9649 38.3089 52.2777 41.3084 49.2782C44.308 46.2786 45.9952 42.2117 46 37.9697H104C103.996 40.0711 104.408 42.1525 105.213 44.0935C106.018 46.0345 107.2 47.7965 108.691 49.2777C110.172 50.7688 111.934 51.9513 113.875 52.7567C115.817 53.5621 117.898 53.9744 120 53.9697V150.97Z" fill="white"/>
<path d="M75 102.97C88.2548 102.97 99 92.2245 99 78.9697C99 65.7149 88.2548 54.9697 75 54.9697C61.7452 54.9697 51 65.7149 51 78.9697C51 92.2245 61.7452 102.97 75 102.97Z" fill="#B91C1C"/>
<path d="M63.4017 80.2236L72.4156 88.771L69.5871 91.5994L66.7587 88.771L86.5577 68.972L89.3861 71.8004L69.5871 91.5994L60.7147 83.1141L63.4017 80.2236Z" fill="white"/>
<path d="M88 108.97H62C60.3431 108.97 59 110.313 59 111.97C59 113.627 60.3431 114.97 62 114.97H88C89.6569 114.97 91 113.627 91 111.97C91 110.313 89.6569 108.97 88 108.97Z" fill="#ED6B6B"/>
<path d="M97 120.97H53C51.3431 120.97 50 122.313 50 123.97C50 125.627 51.3431 126.97 53 126.97H97C98.6569 126.97 100 125.627 100 123.97C100 122.313 98.6569 120.97 97 120.97Z" fill="#ED6B6B"/>
</svg>
