<svg width="24" height="25" viewBox="0 0 24 25" fill="none" xmlns="http://www.w3.org/2000/svg">
<path d="M19 2.4697C19.7957 2.4697 20.5587 2.78577 21.1213 3.34838C21.6839 3.91098 22 4.67405 22 5.4697V20.4697C22 21.2653 21.6839 22.0284 21.1213 22.591C20.5587 23.1536 19.7957 23.4697 19 23.4697H6C5.20435 23.4697 4.44129 23.1536 3.87868 22.591C3.31607 22.0284 3 21.2653 3 20.4697V19.9697H1.7C1.67374 19.9697 1.64773 19.9645 1.62346 19.9545C1.5992 19.9444 1.57715 19.9297 1.55858 19.9111C1.54001 19.8925 1.52527 19.8705 1.51522 19.8462C1.50517 19.822 1.5 19.796 1.5 19.7697V18.6697C1.5 18.5597 1.59 18.4697 1.7 18.4697H3V13.9697H1.7C1.67374 13.9697 1.64773 13.9645 1.62346 13.9545C1.5992 13.9444 1.57715 13.9297 1.55858 13.9111C1.54001 13.8925 1.52527 13.8705 1.51522 13.8462C1.50517 13.822 1.5 13.796 1.5 13.7697V12.6697C1.5 12.5597 1.59 12.4697 1.7 12.4697H3V7.9697H1.7C1.67374 7.9697 1.64773 7.96452 1.62346 7.95447C1.5992 7.94442 1.57715 7.92969 1.55858 7.91112C1.54001 7.89255 1.52527 7.8705 1.51522 7.84623C1.50517 7.82197 1.5 7.79596 1.5 7.7697V6.6697C1.5 6.5597 1.59 6.4697 1.7 6.4697H3V5.4697C3 4.67405 3.31607 3.91098 3.87868 3.34838C4.44129 2.78577 5.20435 2.4697 6 2.4697H19ZM19 3.9697H6C5.61739 3.96967 5.24924 4.11586 4.97087 4.37834C4.6925 4.64082 4.52495 4.99975 4.5025 5.3817L4.5 5.4697V20.4697C4.49998 20.8523 4.64616 21.2205 4.90864 21.4988C5.17112 21.7772 5.53005 21.9447 5.912 21.9672L6 21.9697H19C19.3826 21.9697 19.7508 21.8235 20.0291 21.5611C20.3075 21.2986 20.4751 20.9396 20.4975 20.5577L20.5 20.4697V5.4697C20.5 5.08709 20.3538 4.71894 20.0914 4.44057C19.8289 4.16219 19.4699 3.99464 19.088 3.9722L19 3.9697ZM9.9145 7.4697C10.4665 7.4697 10.9595 7.7047 11.336 8.0862L11.354 8.1012L11.4965 8.2397L11.88 8.6262L12.508 9.2522C12.891 9.6337 13.135 10.1152 13.135 10.6822C13.135 11.2487 12.891 11.7302 12.508 12.1112L12.3685 12.2512L12.475 12.3887C12.8665 12.8692 13.2655 13.2562 13.6965 13.5727L13.7235 13.5922L13.8705 13.4462C14.2205 13.0982 14.665 12.8697 15.1705 12.8387L15.289 12.8352C15.9025 12.8352 16.3775 13.1042 16.734 13.4862L17.8825 14.6262C18.6805 15.4202 18.6985 16.5602 17.9885 17.3712L17.9125 17.4537C17.816 17.5562 17.7225 17.6487 17.599 17.7667L17.4815 17.8807C17.438 17.9231 17.3955 17.9664 17.354 18.0107L17.2425 18.1357C16.7285 18.6877 16.0595 18.9697 15.3 18.9697H15.253L15.1025 18.9627C14.3255 18.9132 13.6505 18.6912 12.85 18.3117C11.4283 17.6264 10.1695 16.6452 9.158 15.4337C8.32 14.4302 7.738 13.4662 7.3505 12.4247C7.077 11.6977 6.96 11.0507 7.0125 10.3957C7.06346 9.79188 7.32921 9.22633 7.7615 8.8017L8.5125 8.0547C8.8895 7.6922 9.376 7.4697 9.914 7.4697H9.9145ZM9.9145 8.9697C9.7925 8.9697 9.6665 9.0267 9.552 9.1362L8.82 9.8652C8.63753 10.0413 8.52613 10.2783 8.507 10.5312C8.4755 10.9247 8.552 11.3577 8.755 11.8962C9.0815 12.7742 9.576 13.5927 10.31 14.4727C11.1842 15.5198 12.2722 16.368 13.501 16.9602C13.952 17.1737 14.5525 17.4247 15.198 17.4657L15.3005 17.4697C15.649 17.4697 15.9185 17.3562 16.1455 17.1132C16.2755 16.9582 16.4185 16.8212 16.5565 16.6882L16.6915 16.5582L16.8185 16.4277C17.0585 16.1787 17.0605 15.9242 16.8245 15.6892L15.6015 14.4742C15.525 14.4032 15.417 14.3352 15.289 14.3352C15.1665 14.3352 15.0425 14.3962 14.9285 14.5097L14.192 15.2422C14.159 15.2757 14.0565 15.3757 13.899 15.3757C13.8323 15.375 13.7668 15.3582 13.708 15.3267L13.619 15.2747C13.5698 15.2477 13.5199 15.2218 13.4695 15.1972L13.3835 15.1537C13.324 15.1242 13.2661 15.0917 13.21 15.0562C12.525 14.6232 11.9025 14.0612 11.312 13.3362C10.9835 12.9247 10.7725 12.5802 10.621 12.2177L10.604 12.1657C10.5725 12.0532 10.5665 11.9137 10.714 11.7672L10.9075 11.5882C11.028 11.4732 11.145 11.3552 11.267 11.2322L11.45 11.0482C11.572 10.9267 11.635 10.8032 11.635 10.6817C11.635 10.5602 11.572 10.4367 11.45 10.3157L10.8635 9.7317L10.6585 9.5242L10.3985 9.2637L10.2685 9.1402C10.1565 9.0267 10.0345 8.9697 9.9145 8.9697Z" fill="#171C28"/>
</svg>
